<mxfile>
    <diagram id="q2265Qc9oZ-RBptxZdze" name="invalid_cases">
        <mxGraphModel dx="1322" dy="689" grid="1" gridSize="10" guides="1" tooltips="1" connect="1" arrows="1" fold="1" page="1" pageScale="1" pageWidth="850" pageHeight="1100" math="0" shadow="0">
            <root>
                <mxCell id="0"/>
                <mxCell id="1" parent="0"/>
                <mxCell id="viwTJ_QeCcKBem_4LBu4-62" value="" style="rounded=0;whiteSpace=wrap;html=1;strokeColor=none;fillColor=#FFFFFF;" parent="1" vertex="1">
                    <mxGeometry x="70" y="180" width="770" height="250" as="geometry"/>
                </mxCell>
                <mxCell id="2" value="23" style="ellipse;whiteSpace=wrap;html=1;aspect=fixed;strokeColor=#006EAF;strokeWidth=2;fillColor=#1ba1e2;fontColor=#ffffff;" parent="1" vertex="1">
                    <mxGeometry x="240" y="200" width="40" height="40" as="geometry"/>
                </mxCell>
                <mxCell id="3" value="&lt;font color=&quot;#000000&quot;&gt;2&lt;/font&gt;" style="text;html=1;strokeColor=none;fillColor=none;align=center;verticalAlign=middle;whiteSpace=wrap;rounded=0;" parent="1" vertex="1">
                    <mxGeometry x="240" y="240" width="40" height="20" as="geometry"/>
                </mxCell>
                <mxCell id="4" value="17" style="ellipse;whiteSpace=wrap;html=1;aspect=fixed;strokeColor=#006EAF;strokeWidth=2;fillColor=#1ba1e2;fontColor=#ffffff;" parent="1" vertex="1">
                    <mxGeometry x="180" y="260" width="40" height="40" as="geometry"/>
                </mxCell>
                <mxCell id="5" value="7" style="ellipse;whiteSpace=wrap;html=1;aspect=fixed;strokeColor=#006EAF;strokeWidth=2;fillColor=#1ba1e2;fontColor=#ffffff;" parent="1" vertex="1">
                    <mxGeometry x="120" y="320" width="40" height="40" as="geometry"/>
                </mxCell>
                <mxCell id="6" value="&lt;font color=&quot;#000000&quot;&gt;0&lt;/font&gt;" style="text;html=1;strokeColor=none;fillColor=none;align=center;verticalAlign=middle;whiteSpace=wrap;rounded=0;" parent="1" vertex="1">
                    <mxGeometry x="120" y="360" width="40" height="20" as="geometry"/>
                </mxCell>
                <mxCell id="7" value="&lt;font color=&quot;#000000&quot;&gt;1&lt;/font&gt;" style="text;html=1;strokeColor=none;fillColor=none;align=center;verticalAlign=middle;whiteSpace=wrap;rounded=0;" parent="1" vertex="1">
                    <mxGeometry x="180" y="300" width="40" height="20" as="geometry"/>
                </mxCell>
                <mxCell id="8" value="&lt;font color=&quot;#000000&quot;&gt;BF: 0&lt;/font&gt;" style="text;html=1;strokeColor=none;fillColor=none;align=center;verticalAlign=middle;whiteSpace=wrap;rounded=0;" parent="1" vertex="1">
                    <mxGeometry x="80" y="330" width="40" height="20" as="geometry"/>
                </mxCell>
                <mxCell id="9" value="&lt;font color=&quot;#000000&quot;&gt;BF: 1&lt;/font&gt;&lt;span style=&quot;color: rgba(0 , 0 , 0 , 0) ; font-family: monospace ; font-size: 0px&quot;&gt;%3CmxGraphModel%3E%3Croot%3E%3CmxCell%20id%3D%220%22%2F%3E%3CmxCell%20id%3D%221%22%20parent%3D%220%22%2F%3E%3CmxCell%20id%3D%222%22%20value%3D%22%26lt%3Bfont%20color%3D%26quot%3B%23000000%26quot%3B%26gt%3B1%26lt%3B%2Ffont%26gt%3B%22%20style%3D%22text%3Bhtml%3D1%3BstrokeColor%3Dnone%3BfillColor%3Dnone%3Balign%3Dcenter%3BverticalAlign%3Dmiddle%3BwhiteSpace%3Dwrap%3Brounded%3D0%3B%22%20vertex%3D%221%22%20parent%3D%221%22%3E%3CmxGeometry%20x%3D%22330%22%20y%3D%22490%22%20width%3D%2240%22%20height%3D%2220%22%20as%3D%22geometry%22%2F%3E%3C%2FmxCell%3E%3C%2Froot%3E%3C%2FmxGraphModel%3E&lt;/span&gt;" style="text;html=1;strokeColor=none;fillColor=none;align=center;verticalAlign=middle;whiteSpace=wrap;rounded=0;" parent="1" vertex="1">
                    <mxGeometry x="140" y="270" width="40" height="20" as="geometry"/>
                </mxCell>
                <mxCell id="11" value="&lt;font color=&quot;#ff0000&quot;&gt;BF: 2&lt;/font&gt;" style="text;html=1;strokeColor=none;fillColor=none;align=center;verticalAlign=middle;whiteSpace=wrap;rounded=0;" parent="1" vertex="1">
                    <mxGeometry x="200" y="210" width="40" height="20" as="geometry"/>
                </mxCell>
                <mxCell id="12" value="23" style="ellipse;whiteSpace=wrap;html=1;aspect=fixed;strokeColor=#006EAF;strokeWidth=2;fillColor=#1ba1e2;fontColor=#ffffff;" parent="1" vertex="1">
                    <mxGeometry x="380" y="200" width="40" height="40" as="geometry"/>
                </mxCell>
                <mxCell id="13" value="&lt;font color=&quot;#000000&quot;&gt;2&lt;/font&gt;" style="text;html=1;strokeColor=none;fillColor=none;align=center;verticalAlign=middle;whiteSpace=wrap;rounded=0;" parent="1" vertex="1">
                    <mxGeometry x="380" y="240" width="40" height="20" as="geometry"/>
                </mxCell>
                <mxCell id="14" value="17" style="ellipse;whiteSpace=wrap;html=1;aspect=fixed;strokeColor=#006EAF;strokeWidth=2;fillColor=#1ba1e2;fontColor=#ffffff;" parent="1" vertex="1">
                    <mxGeometry x="320" y="260" width="40" height="40" as="geometry"/>
                </mxCell>
                <mxCell id="15" value="21" style="ellipse;whiteSpace=wrap;html=1;aspect=fixed;strokeColor=#006EAF;strokeWidth=2;fillColor=#1ba1e2;fontColor=#ffffff;" parent="1" vertex="1">
                    <mxGeometry x="360" y="320" width="40" height="40" as="geometry"/>
                </mxCell>
                <mxCell id="16" value="&lt;font color=&quot;#000000&quot;&gt;0&lt;/font&gt;" style="text;html=1;strokeColor=none;fillColor=none;align=center;verticalAlign=middle;whiteSpace=wrap;rounded=0;" parent="1" vertex="1">
                    <mxGeometry x="360" y="360" width="40" height="20" as="geometry"/>
                </mxCell>
                <mxCell id="17" value="&lt;font color=&quot;#000000&quot;&gt;1&lt;/font&gt;" style="text;html=1;strokeColor=none;fillColor=none;align=center;verticalAlign=middle;whiteSpace=wrap;rounded=0;" parent="1" vertex="1">
                    <mxGeometry x="320" y="300" width="40" height="20" as="geometry"/>
                </mxCell>
                <mxCell id="18" value="&lt;font color=&quot;#000000&quot;&gt;BF: 0&lt;/font&gt;" style="text;html=1;strokeColor=none;fillColor=none;align=center;verticalAlign=middle;whiteSpace=wrap;rounded=0;" parent="1" vertex="1">
                    <mxGeometry x="320" y="330" width="40" height="20" as="geometry"/>
                </mxCell>
                <mxCell id="19" value="&lt;font color=&quot;#000000&quot;&gt;BF: -1&lt;/font&gt;&lt;span style=&quot;color: rgba(0 , 0 , 0 , 0) ; font-family: monospace ; font-size: 0px&quot;&gt;%3CmxGraphModel%3E%3Croot%3E%3CmxCell%20id%3D%220%22%2F%3E%3CmxCell%20id%3D%221%22%20parent%3D%220%22%2F%3E%3CmxCell%20id%3D%222%22%20value%3D%22%26lt%3Bfont%20color%3D%26quot%3B%23000000%26quot%3B%26gt%3B1%26lt%3B%2Ffont%26gt%3B%22%20style%3D%22text%3Bhtml%3D1%3BstrokeColor%3Dnone%3BfillColor%3Dnone%3Balign%3Dcenter%3BverticalAlign%3Dmiddle%3BwhiteSpace%3Dwrap%3Brounded%3D0%3B%22%20vertex%3D%221%22%20parent%3D%221%22%3E%3CmxGeometry%20x%3D%22330%22%20y%3D%22490%22%20width%3D%2240%22%20height%3D%2220%22%20as%3D%22geometry%22%2F%3E%3C%2FmxCell%3E%3C%2Froot%3E%3C%2FmxGraphModel%3-E&lt;/span&gt;" style="text;html=1;strokeColor=none;fillColor=none;align=center;verticalAlign=middle;whiteSpace=wrap;rounded=0;" parent="1" vertex="1">
                    <mxGeometry x="280" y="270" width="40" height="20" as="geometry"/>
                </mxCell>
                <mxCell id="20" value="&lt;font color=&quot;#ff0000&quot;&gt;BF: 2&lt;/font&gt;" style="text;html=1;strokeColor=none;fillColor=none;align=center;verticalAlign=middle;whiteSpace=wrap;rounded=0;" parent="1" vertex="1">
                    <mxGeometry x="340" y="210" width="40" height="20" as="geometry"/>
                </mxCell>
                <mxCell id="30" value="23" style="ellipse;whiteSpace=wrap;html=1;aspect=fixed;strokeColor=#006EAF;strokeWidth=2;fillColor=#1ba1e2;fontColor=#ffffff;" parent="1" vertex="1">
                    <mxGeometry x="500" y="200" width="40" height="40" as="geometry"/>
                </mxCell>
                <mxCell id="31" value="&lt;font color=&quot;#000000&quot;&gt;2&lt;/font&gt;" style="text;html=1;strokeColor=none;fillColor=none;align=center;verticalAlign=middle;whiteSpace=wrap;rounded=0;" parent="1" vertex="1">
                    <mxGeometry x="500" y="240" width="40" height="20" as="geometry"/>
                </mxCell>
                <mxCell id="32" value="37" style="ellipse;whiteSpace=wrap;html=1;aspect=fixed;strokeColor=#006EAF;strokeWidth=2;fillColor=#1ba1e2;fontColor=#ffffff;" parent="1" vertex="1">
                    <mxGeometry x="560" y="260" width="40" height="40" as="geometry"/>
                </mxCell>
                <mxCell id="33" value="31" style="ellipse;whiteSpace=wrap;html=1;aspect=fixed;strokeColor=#006EAF;strokeWidth=2;fillColor=#1ba1e2;fontColor=#ffffff;" parent="1" vertex="1">
                    <mxGeometry x="520" y="320" width="40" height="40" as="geometry"/>
                </mxCell>
                <mxCell id="34" value="&lt;font color=&quot;#000000&quot;&gt;0&lt;/font&gt;" style="text;html=1;strokeColor=none;fillColor=none;align=center;verticalAlign=middle;whiteSpace=wrap;rounded=0;" parent="1" vertex="1">
                    <mxGeometry x="520" y="360" width="40" height="20" as="geometry"/>
                </mxCell>
                <mxCell id="35" value="&lt;font color=&quot;#000000&quot;&gt;1&lt;/font&gt;" style="text;html=1;strokeColor=none;fillColor=none;align=center;verticalAlign=middle;whiteSpace=wrap;rounded=0;" parent="1" vertex="1">
                    <mxGeometry x="560" y="300" width="40" height="20" as="geometry"/>
                </mxCell>
                <mxCell id="36" value="&lt;font color=&quot;#000000&quot;&gt;BF: 0&lt;/font&gt;" style="text;html=1;strokeColor=none;fillColor=none;align=center;verticalAlign=middle;whiteSpace=wrap;rounded=0;" parent="1" vertex="1">
                    <mxGeometry x="480" y="330" width="40" height="20" as="geometry"/>
                </mxCell>
                <mxCell id="37" value="&lt;font color=&quot;#000000&quot;&gt;BF: 1&lt;/font&gt;&lt;span style=&quot;color: rgba(0 , 0 , 0 , 0) ; font-family: monospace ; font-size: 0px&quot;&gt;%3CmxGraphModel%3E%3Croot%3E%3CmxCell%20id%3D%220%22%2F%3E%3CmxCell%20id%3D%221%22%20parent%3D%220%22%2F%3E%3CmxCell%20id%3D%222%22%20value%3D%22%26lt%3Bfont%20color%3D%26quot%3B%23000000%26quot%3B%26gt%3B1%26lt%3B%2Ffont%26gt%3B%22%20style%3D%22text%3Bhtml%3D1%3BstrokeColor%3Dnone%3BfillColor%3Dnone%3Balign%3Dcenter%3BverticalAlign%3Dmiddle%3BwhiteSpace%3Dwrap%3Brounded%3D0%3B%22%20vertex%3D%221%22%20parent%3D%221%22%3E%3CmxGeometry%20x%3D%22330%22%20y%3D%22490%22%20width%3D%2240%22%20height%3D%2220%22%20as%3D%22geometry%22%2F%3E%3C%2FmxCell%3E%3C%2Froot%3E%3C%2FmxGraphModel%3E&lt;/span&gt;" style="text;html=1;strokeColor=none;fillColor=none;align=center;verticalAlign=middle;whiteSpace=wrap;rounded=0;" parent="1" vertex="1">
                    <mxGeometry x="520" y="270" width="40" height="20" as="geometry"/>
                </mxCell>
                <mxCell id="38" value="&lt;font color=&quot;#ff0000&quot;&gt;BF: -2&lt;/font&gt;" style="text;html=1;strokeColor=none;fillColor=none;align=center;verticalAlign=middle;whiteSpace=wrap;rounded=0;" parent="1" vertex="1">
                    <mxGeometry x="540" y="210" width="40" height="20" as="geometry"/>
                </mxCell>
                <mxCell id="39" value="23" style="ellipse;whiteSpace=wrap;html=1;aspect=fixed;strokeColor=#006EAF;strokeWidth=2;fillColor=#1ba1e2;fontColor=#ffffff;" parent="1" vertex="1">
                    <mxGeometry x="660" y="200" width="40" height="40" as="geometry"/>
                </mxCell>
                <mxCell id="40" value="&lt;font color=&quot;#000000&quot;&gt;2&lt;/font&gt;" style="text;html=1;strokeColor=none;fillColor=none;align=center;verticalAlign=middle;whiteSpace=wrap;rounded=0;" parent="1" vertex="1">
                    <mxGeometry x="660" y="240" width="40" height="20" as="geometry"/>
                </mxCell>
                <mxCell id="41" value="37" style="ellipse;whiteSpace=wrap;html=1;aspect=fixed;strokeColor=#006EAF;strokeWidth=2;fillColor=#1ba1e2;fontColor=#ffffff;" parent="1" vertex="1">
                    <mxGeometry x="720" y="260" width="40" height="40" as="geometry"/>
                </mxCell>
                <mxCell id="42" value="41" style="ellipse;whiteSpace=wrap;html=1;aspect=fixed;strokeColor=#006EAF;strokeWidth=2;fillColor=#1ba1e2;fontColor=#ffffff;" parent="1" vertex="1">
                    <mxGeometry x="780" y="320" width="40" height="40" as="geometry"/>
                </mxCell>
                <mxCell id="43" value="&lt;font color=&quot;#000000&quot;&gt;0&lt;/font&gt;" style="text;html=1;strokeColor=none;fillColor=none;align=center;verticalAlign=middle;whiteSpace=wrap;rounded=0;" parent="1" vertex="1">
                    <mxGeometry x="780" y="360" width="40" height="20" as="geometry"/>
                </mxCell>
                <mxCell id="44" value="&lt;font color=&quot;#000000&quot;&gt;1&lt;/font&gt;" style="text;html=1;strokeColor=none;fillColor=none;align=center;verticalAlign=middle;whiteSpace=wrap;rounded=0;" parent="1" vertex="1">
                    <mxGeometry x="720" y="300" width="40" height="20" as="geometry"/>
                </mxCell>
                <mxCell id="45" value="&lt;font color=&quot;#000000&quot;&gt;BF: 0&lt;/font&gt;" style="text;html=1;strokeColor=none;fillColor=none;align=center;verticalAlign=middle;whiteSpace=wrap;rounded=0;" parent="1" vertex="1">
                    <mxGeometry x="740" y="330" width="40" height="20" as="geometry"/>
                </mxCell>
                <mxCell id="46" value="&lt;font color=&quot;#000000&quot;&gt;BF: -1&lt;/font&gt;&lt;span style=&quot;color: rgba(0 , 0 , 0 , 0) ; font-family: monospace ; font-size: 0px&quot;&gt;%3CmxGraphModel%3E%3Croot%3E%3CmxCell%20id%3D%220%22%2F%3E%3CmxCell%20id%3D%221%22%20parent%3D%220%22%2F%3E%3CmxCell%20id%3D%222%22%20value%3D%22%26lt%3Bfont%20color%3D%26quot%3B%23000000%26quot%3B%26gt%3B1%26lt%3B%2Ffont%26gt%3B%22%20style%3D%22text%3Bhtml%3D1%3BstrokeColor%3Dnone%3BfillColor%3Dnone%3Balign%3Dcenter%3BverticalAlign%3Dmiddle%3BwhiteSpace%3Dwrap%3Brounded%3D0%3B%22%20vertex%3D%221%22%20parent%3D%221%22%3E%3CmxGeometry%20x%3D%22330%22%20y%3D%22490%22%20width%3D%2240%22%20height%3D%2220%22%20as%3D%22geometry%22%2F%3E%3C%2FmxCell%3E%3C%2Froot%3E%3C%2FmxGraphModel%3E&lt;/span&gt;" style="text;html=1;strokeColor=none;fillColor=none;align=center;verticalAlign=middle;whiteSpace=wrap;rounded=0;" parent="1" vertex="1">
                    <mxGeometry x="680" y="270" width="40" height="20" as="geometry"/>
                </mxCell>
                <mxCell id="47" value="&lt;font color=&quot;#ff0000&quot;&gt;BF: -2&lt;/font&gt;" style="text;html=1;strokeColor=none;fillColor=none;align=center;verticalAlign=middle;whiteSpace=wrap;rounded=0;" parent="1" vertex="1">
                    <mxGeometry x="700" y="210" width="40" height="20" as="geometry"/>
                </mxCell>
                <mxCell id="51" value="" style="endArrow=none;html=1;strokeColor=#000000;" parent="1" source="14" target="12" edge="1">
                    <mxGeometry width="50" height="50" relative="1" as="geometry">
                        <mxPoint x="330" y="590" as="sourcePoint"/>
                        <mxPoint x="380" y="540" as="targetPoint"/>
                    </mxGeometry>
                </mxCell>
                <mxCell id="52" value="" style="endArrow=none;html=1;strokeColor=#000000;" parent="1" source="15" target="14" edge="1">
                    <mxGeometry width="50" height="50" relative="1" as="geometry">
                        <mxPoint x="340" y="600" as="sourcePoint"/>
                        <mxPoint x="390" y="550" as="targetPoint"/>
                    </mxGeometry>
                </mxCell>
                <mxCell id="53" value="" style="endArrow=none;html=1;strokeColor=#000000;" parent="1" source="41" target="39" edge="1">
                    <mxGeometry width="50" height="50" relative="1" as="geometry">
                        <mxPoint x="350" y="610" as="sourcePoint"/>
                        <mxPoint x="400" y="560" as="targetPoint"/>
                    </mxGeometry>
                </mxCell>
                <mxCell id="54" value="" style="endArrow=none;html=1;strokeColor=#000000;" parent="1" source="33" target="32" edge="1">
                    <mxGeometry width="50" height="50" relative="1" as="geometry">
                        <mxPoint x="360" y="620" as="sourcePoint"/>
                        <mxPoint x="410" y="570" as="targetPoint"/>
                    </mxGeometry>
                </mxCell>
                <mxCell id="55" value="" style="endArrow=none;html=1;strokeColor=#000000;" parent="1" source="32" target="30" edge="1">
                    <mxGeometry width="50" height="50" relative="1" as="geometry">
                        <mxPoint x="370" y="630" as="sourcePoint"/>
                        <mxPoint x="420" y="580" as="targetPoint"/>
                    </mxGeometry>
                </mxCell>
                <mxCell id="56" value="" style="endArrow=none;html=1;strokeColor=#000000;" parent="1" source="5" target="4" edge="1">
                    <mxGeometry width="50" height="50" relative="1" as="geometry">
                        <mxPoint x="380" y="640" as="sourcePoint"/>
                        <mxPoint x="430" y="590" as="targetPoint"/>
                    </mxGeometry>
                </mxCell>
                <mxCell id="57" value="" style="endArrow=none;html=1;strokeColor=#000000;" parent="1" source="4" target="2" edge="1">
                    <mxGeometry width="50" height="50" relative="1" as="geometry">
                        <mxPoint x="390" y="650" as="sourcePoint"/>
                        <mxPoint x="440" y="600" as="targetPoint"/>
                    </mxGeometry>
                </mxCell>
                <mxCell id="58" value="" style="endArrow=none;html=1;strokeColor=#000000;" parent="1" source="42" target="41" edge="1">
                    <mxGeometry width="50" height="50" relative="1" as="geometry">
                        <mxPoint x="400" y="660" as="sourcePoint"/>
                        <mxPoint x="450" y="610" as="targetPoint"/>
                    </mxGeometry>
                </mxCell>
                <mxCell id="59" value="&lt;font color=&quot;#000000&quot;&gt;Left-Left Case&lt;/font&gt;" style="text;html=1;strokeColor=none;fillColor=none;align=center;verticalAlign=middle;whiteSpace=wrap;rounded=0;" parent="1" vertex="1">
                    <mxGeometry x="150" y="400" width="100" height="20" as="geometry"/>
                </mxCell>
                <mxCell id="60" value="&lt;font color=&quot;#000000&quot;&gt;Left-Right Case&lt;/font&gt;" style="text;html=1;strokeColor=none;fillColor=none;align=center;verticalAlign=middle;whiteSpace=wrap;rounded=0;" parent="1" vertex="1">
                    <mxGeometry x="330" y="400" width="100" height="20" as="geometry"/>
                </mxCell>
                <mxCell id="61" value="&lt;font color=&quot;#000000&quot;&gt;Right-Left Case&lt;/font&gt;" style="text;html=1;strokeColor=none;fillColor=none;align=center;verticalAlign=middle;whiteSpace=wrap;rounded=0;" parent="1" vertex="1">
                    <mxGeometry x="490" y="400" width="100" height="20" as="geometry"/>
                </mxCell>
                <mxCell id="62" value="&lt;font color=&quot;#000000&quot;&gt;Right-Right Case&lt;/font&gt;" style="text;html=1;strokeColor=none;fillColor=none;align=center;verticalAlign=middle;whiteSpace=wrap;rounded=0;" parent="1" vertex="1">
                    <mxGeometry x="690" y="400" width="100" height="20" as="geometry"/>
                </mxCell>
            </root>
        </mxGraphModel>
    </diagram>
    <diagram id="Ijml6JleHAxym1OPnk92" name="right_rotation">
        &#xa;        &#xa;&#xa;
        <mxGraphModel dx="1322" dy="689" grid="1" gridSize="10" guides="1" tooltips="1" connect="1" arrows="1" fold="1" page="1" pageScale="1" pageWidth="850" pageHeight="1100" math="0" shadow="0">
            &#xa;            &#xa;&#xa;
            <root>
                &#xa;                &#xa;&#xa;
                <mxCell id="6H4vvrLfv4xjmV8cVd2f-0"/>
                &#xa;                &#xa;&#xa;
                <mxCell id="6H4vvrLfv4xjmV8cVd2f-1" parent="6H4vvrLfv4xjmV8cVd2f-0"/>
                &#xa;                &#xa;&#xa;
                <mxCell id="7tkuIudEafTYgREbbMOm-0" value="" style="rounded=0;whiteSpace=wrap;html=1;strokeColor=none;fillColor=#FFFFFF;" vertex="1" parent="6H4vvrLfv4xjmV8cVd2f-1">
                    &#xa;                    &#xa;&#xa;
                    <mxGeometry x="20" y="185" width="690" height="205" as="geometry"/>
                    &#xa;                    &#xa;&#xa;
                </mxCell>
                &#xa;                &#xa;&#xa;
                <mxCell id="6gUneZJ-KQSb6SAxSn32-1" value="&lt;font color=&quot;#000000&quot;&gt;2&lt;/font&gt;" style="text;html=1;strokeColor=none;fillColor=none;align=center;verticalAlign=middle;whiteSpace=wrap;rounded=0;" vertex="1" parent="6H4vvrLfv4xjmV8cVd2f-1">
                    &#xa;                    &#xa;&#xa;
                    <mxGeometry x="240" y="240" width="40" height="20" as="geometry"/>
                    &#xa;                    &#xa;&#xa;
                </mxCell>
                &#xa;                &#xa;&#xa;
                <mxCell id="6gUneZJ-KQSb6SAxSn32-2" value="17" style="ellipse;whiteSpace=wrap;html=1;aspect=fixed;strokeWidth=2;fillColor=#1ba1e2;fontColor=#ffffff;strokeColor=#FF8000;" vertex="1" parent="6H4vvrLfv4xjmV8cVd2f-1">
                    &#xa;                    &#xa;&#xa;
                    <mxGeometry x="180" y="260" width="40" height="40" as="geometry"/>
                    &#xa;                    &#xa;&#xa;
                </mxCell>
                &#xa;                &#xa;&#xa;
                <mxCell id="6gUneZJ-KQSb6SAxSn32-3" value="7" style="ellipse;whiteSpace=wrap;html=1;aspect=fixed;strokeColor=#006EAF;strokeWidth=2;fillColor=#1ba1e2;fontColor=#ffffff;" vertex="1" parent="6H4vvrLfv4xjmV8cVd2f-1">
                    &#xa;                    &#xa;&#xa;
                    <mxGeometry x="120" y="320" width="40" height="40" as="geometry"/>
                    &#xa;                    &#xa;&#xa;
                </mxCell>
                &#xa;                &#xa;&#xa;
                <mxCell id="6gUneZJ-KQSb6SAxSn32-4" value="&lt;font color=&quot;#000000&quot;&gt;0&lt;/font&gt;" style="text;html=1;strokeColor=none;fillColor=none;align=center;verticalAlign=middle;whiteSpace=wrap;rounded=0;" vertex="1" parent="6H4vvrLfv4xjmV8cVd2f-1">
                    &#xa;                    &#xa;&#xa;
                    <mxGeometry x="120" y="360" width="40" height="20" as="geometry"/>
                    &#xa;                    &#xa;&#xa;
                </mxCell>
                &#xa;                &#xa;&#xa;
                <mxCell id="6gUneZJ-KQSb6SAxSn32-5" value="&lt;font color=&quot;#000000&quot;&gt;1&lt;/font&gt;" style="text;html=1;strokeColor=none;fillColor=none;align=center;verticalAlign=middle;whiteSpace=wrap;rounded=0;" vertex="1" parent="6H4vvrLfv4xjmV8cVd2f-1">
                    &#xa;                    &#xa;&#xa;
                    <mxGeometry x="180" y="300" width="40" height="20" as="geometry"/>
                    &#xa;                    &#xa;&#xa;
                </mxCell>
                &#xa;                &#xa;&#xa;
                <mxCell id="6gUneZJ-KQSb6SAxSn32-6" value="&lt;font color=&quot;#000000&quot;&gt;BF: 0&lt;/font&gt;" style="text;html=1;strokeColor=none;fillColor=none;align=center;verticalAlign=middle;whiteSpace=wrap;rounded=0;" vertex="1" parent="6H4vvrLfv4xjmV8cVd2f-1">
                    &#xa;                    &#xa;&#xa;
                    <mxGeometry x="80" y="330" width="40" height="20" as="geometry"/>
                    &#xa;                    &#xa;&#xa;
                </mxCell>
                &#xa;                &#xa;&#xa;
                <mxCell id="6gUneZJ-KQSb6SAxSn32-7" value="&lt;font color=&quot;#000000&quot;&gt;BF: 1&lt;/font&gt;&lt;span style=&quot;color: rgba(0 , 0 , 0 , 0) ; font-family: monospace ; font-size: 0px&quot;&gt;%3CmxGraphModel%3E%3Croot%3E%3CmxCell%20id%3D%220%22%2F%3E%3CmxCell%20id%3D%221%22%20parent%3D%220%22%2F%3E%3CmxCell%20id%3D%222%22%20value%3D%22%26lt%3Bfont%20color%3D%26quot%3B%23000000%26quot%3B%26gt%3B1%26lt%3B%2Ffont%26gt%3B%22%20style%3D%22text%3Bhtml%3D1%3BstrokeColor%3Dnone%3BfillColor%3Dnone%3Balign%3Dcenter%3BverticalAlign%3Dmiddle%3BwhiteSpace%3Dwrap%3Brounded%3D0%3B%22%20vertex%3D%221%22%20parent%3D%221%22%3E%3CmxGeometry%20x%3D%22330%22%20y%3D%22490%22%20width%3D%2240%22%20height%3D%2220%22%20as%3D%22geometry%22%2F%3E%3C%2FmxCell%3E%3C%2Froot%3E%3C%2FmxGraphModel%3E&lt;/span&gt;" style="text;html=1;strokeColor=none;fillColor=none;align=center;verticalAlign=middle;whiteSpace=wrap;rounded=0;" vertex="1" parent="6H4vvrLfv4xjmV8cVd2f-1">
                    &#xa;                    &#xa;&#xa;
                    <mxGeometry x="140" y="270" width="40" height="20" as="geometry"/>
                    &#xa;                    &#xa;&#xa;
                </mxCell>
                &#xa;                &#xa;&#xa;
                <mxCell id="6gUneZJ-KQSb6SAxSn32-8" value="&lt;font color=&quot;#ff0000&quot;&gt;BF: 2&lt;/font&gt;" style="text;html=1;strokeColor=none;fillColor=none;align=center;verticalAlign=middle;whiteSpace=wrap;rounded=0;" vertex="1" parent="6H4vvrLfv4xjmV8cVd2f-1">
                    &#xa;                    &#xa;&#xa;
                    <mxGeometry x="200" y="210" width="40" height="20" as="geometry"/>
                    &#xa;                    &#xa;&#xa;
                </mxCell>
                &#xa;                &#xa;&#xa;
                <mxCell id="6gUneZJ-KQSb6SAxSn32-9" value="" style="endArrow=none;html=1;strokeColor=#000000;" edge="1" parent="6H4vvrLfv4xjmV8cVd2f-1" source="6gUneZJ-KQSb6SAxSn32-3" target="6gUneZJ-KQSb6SAxSn32-2">
                    &#xa;                    &#xa;&#xa;
                    <mxGeometry width="50" height="50" relative="1" as="geometry">
                        &#xa;                        &#xa;&#xa;
                        <mxPoint x="380" y="640" as="sourcePoint"/>
                        &#xa;                        &#xa;&#xa;
                        <mxPoint x="430" y="590" as="targetPoint"/>
                        &#xa;                        &#xa;&#xa;
                    </mxGeometry>
                    &#xa;                    &#xa;&#xa;
                </mxCell>
                &#xa;                &#xa;&#xa;
                <mxCell id="6gUneZJ-KQSb6SAxSn32-10" value="" style="endArrow=none;html=1;strokeColor=#000000;" edge="1" parent="6H4vvrLfv4xjmV8cVd2f-1" source="6gUneZJ-KQSb6SAxSn32-2" target="6gUneZJ-KQSb6SAxSn32-12">
                    &#xa;                    &#xa;&#xa;
                    <mxGeometry width="50" height="50" relative="1" as="geometry">
                        &#xa;                        &#xa;&#xa;
                        <mxPoint x="390" y="650" as="sourcePoint"/>
                        &#xa;                        &#xa;&#xa;
                        <mxPoint x="245.85786437626894" y="234.14213562373106" as="targetPoint"/>
                        &#xa;                        &#xa;&#xa;
                    </mxGeometry>
                    &#xa;                    &#xa;&#xa;
                </mxCell>
                &#xa;                &#xa;&#xa;
                <mxCell id="6gUneZJ-KQSb6SAxSn32-11" value="&lt;font color=&quot;#000000&quot;&gt;Left-Left Case&lt;/font&gt;" style="text;html=1;strokeColor=none;fillColor=none;align=center;verticalAlign=middle;whiteSpace=wrap;rounded=0;" vertex="1" parent="6H4vvrLfv4xjmV8cVd2f-1">
                    &#xa;                    &#xa;&#xa;
                    <mxGeometry x="20" y="270" width="100" height="20" as="geometry"/>
                    &#xa;                    &#xa;&#xa;
                </mxCell>
                &#xa;                &#xa;&#xa;
                <mxCell id="6gUneZJ-KQSb6SAxSn32-12" value="23" style="ellipse;whiteSpace=wrap;html=1;aspect=fixed;strokeWidth=2;fillColor=#1ba1e2;fontColor=#ffffff;strokeColor=#FF8000;" vertex="1" parent="6H4vvrLfv4xjmV8cVd2f-1">
                    &#xa;                    &#xa;&#xa;
                    <mxGeometry x="240" y="200" width="40" height="40" as="geometry"/>
                    &#xa;                    &#xa;&#xa;
                </mxCell>
                &#xa;                &#xa;&#xa;
                <mxCell id="6gUneZJ-KQSb6SAxSn32-13" value="&lt;font color=&quot;#000000&quot;&gt;Right Rotation&lt;/font&gt;" style="html=1;shadow=0;dashed=0;align=center;verticalAlign=middle;shape=mxgraph.arrows2.arrow;dy=0.6;dx=40;notch=0;strokeColor=none;fillColor=#FFD966;" vertex="1" parent="6H4vvrLfv4xjmV8cVd2f-1">
                    &#xa;                    &#xa;&#xa;
                    <mxGeometry x="340" y="245" width="100" height="70" as="geometry"/>
                    &#xa;                    &#xa;&#xa;
                </mxCell>
                &#xa;                &#xa;&#xa;
                <mxCell id="6gUneZJ-KQSb6SAxSn32-14" value="" style="verticalLabelPosition=bottom;html=1;verticalAlign=top;strokeWidth=1;align=center;outlineConnect=0;dashed=0;outlineConnect=0;shape=mxgraph.aws3d.arrowSE;aspect=fixed;fillColor=#FFD966;strokeColor=none;" vertex="1" parent="6H4vvrLfv4xjmV8cVd2f-1">
                    &#xa;                    &#xa;&#xa;
                    <mxGeometry x="280" y="224" width="45.5" height="26" as="geometry"/>
                    &#xa;                    &#xa;&#xa;
                </mxCell>
                &#xa;                &#xa;&#xa;
                <mxCell id="6gUneZJ-KQSb6SAxSn32-15" value="" style="verticalLabelPosition=bottom;html=1;verticalAlign=top;strokeWidth=1;align=center;outlineConnect=0;dashed=0;outlineConnect=0;shape=mxgraph.aws3d.arrowNE;aspect=fixed;fillColor=#FFD966;strokeColor=none;" vertex="1" parent="6H4vvrLfv4xjmV8cVd2f-1">
                    &#xa;                    &#xa;&#xa;
                    <mxGeometry x="220" y="260" width="45.5" height="26" as="geometry"/>
                    &#xa;                    &#xa;&#xa;
                </mxCell>
                &#xa;                &#xa;&#xa;
                <mxCell id="6gUneZJ-KQSb6SAxSn32-17" value="&lt;font color=&quot;#97d077&quot;&gt;1&lt;/font&gt;" style="text;html=1;strokeColor=none;fillColor=none;align=center;verticalAlign=middle;whiteSpace=wrap;rounded=0;" vertex="1" parent="6H4vvrLfv4xjmV8cVd2f-1">
                    &#xa;                    &#xa;&#xa;
                    <mxGeometry x="560" y="257" width="40" height="20" as="geometry"/>
                    &#xa;                    &#xa;&#xa;
                </mxCell>
                &#xa;                &#xa;&#xa;
                <mxCell id="6gUneZJ-KQSb6SAxSn32-18" value="17" style="ellipse;whiteSpace=wrap;html=1;aspect=fixed;strokeWidth=2;fillColor=#1ba1e2;fontColor=#ffffff;strokeColor=#006EAF;" vertex="1" parent="6H4vvrLfv4xjmV8cVd2f-1">
                    &#xa;                    &#xa;&#xa;
                    <mxGeometry x="560" y="217" width="40" height="40" as="geometry"/>
                    &#xa;                    &#xa;&#xa;
                </mxCell>
                &#xa;                &#xa;&#xa;
                <mxCell id="6gUneZJ-KQSb6SAxSn32-19" value="7" style="ellipse;whiteSpace=wrap;html=1;aspect=fixed;strokeColor=#006EAF;strokeWidth=2;fillColor=#1ba1e2;fontColor=#ffffff;" vertex="1" parent="6H4vvrLfv4xjmV8cVd2f-1">
                    &#xa;                    &#xa;&#xa;
                    <mxGeometry x="500" y="280" width="40" height="40" as="geometry"/>
                    &#xa;                    &#xa;&#xa;
                </mxCell>
                &#xa;                &#xa;&#xa;
                <mxCell id="6gUneZJ-KQSb6SAxSn32-20" value="&lt;font color=&quot;#000000&quot;&gt;0&lt;/font&gt;" style="text;html=1;strokeColor=none;fillColor=none;align=center;verticalAlign=middle;whiteSpace=wrap;rounded=0;" vertex="1" parent="6H4vvrLfv4xjmV8cVd2f-1">
                    &#xa;                    &#xa;&#xa;
                    <mxGeometry x="500" y="320" width="40" height="20" as="geometry"/>
                    &#xa;                    &#xa;&#xa;
                </mxCell>
                &#xa;                &#xa;&#xa;
                <mxCell id="6gUneZJ-KQSb6SAxSn32-21" value="&lt;font color=&quot;#97d077&quot;&gt;0&lt;/font&gt;" style="text;html=1;strokeColor=none;fillColor=none;align=center;verticalAlign=middle;whiteSpace=wrap;rounded=0;" vertex="1" parent="6H4vvrLfv4xjmV8cVd2f-1">
                    &#xa;                    &#xa;&#xa;
                    <mxGeometry x="620" y="320" width="40" height="20" as="geometry"/>
                    &#xa;                    &#xa;&#xa;
                </mxCell>
                &#xa;                &#xa;&#xa;
                <mxCell id="6gUneZJ-KQSb6SAxSn32-22" value="&lt;font color=&quot;#000000&quot;&gt;BF: 0&lt;/font&gt;&lt;span style=&quot;color: rgba(0 , 0 , 0 , 0) ; font-family: monospace ; font-size: 0px&quot;&gt;%3CmxGraphModel%3E%3Croot%3E%3CmxCell%20id%3D%220%22%2F%3E%3CmxCell%20id%3D%221%22%20parent%3D%220%22%2F%3E%3CmxCell%20id%3D%222%22%20value%3D%22%26lt%3Bfont%20color%3D%26quot%3B%23000000%26quot%3B%26gt%3B1%26lt%3B%2Ffont%26gt%3B%22%20style%3D%22text%3Bhtml%3D1%3BstrokeColor%3Dnone%3BfillColor%3Dnone%3Balign%3Dcenter%3BverticalAlign%3Dmiddle%3BwhiteSpace%3Dwrap%3Brounded%3D0%3B%22%20vertex%3D%221%22%20parent%3D%221%22%3E%3CmxGeometry%20x%3D%22330%22%20y%3D%22490%22%20width%3D%2240%22%20height%3D%2220%22%20as%3D%22geometry%22%2F%3E%3C%2FmxCell%3E%3C%2Froot%3E%3C%2FmxGraphModel%3&lt;/span&gt;" style="text;html=1;strokeColor=none;fillColor=none;align=center;verticalAlign=middle;whiteSpace=wrap;rounded=0;" vertex="1" parent="6H4vvrLfv4xjmV8cVd2f-1">
                    &#xa;                    &#xa;&#xa;
                    <mxGeometry x="460" y="290" width="40" height="20" as="geometry"/>
                    &#xa;                    &#xa;&#xa;
                </mxCell>
                &#xa;                &#xa;&#xa;
                <mxCell id="6gUneZJ-KQSb6SAxSn32-23" value="&lt;font color=&quot;#97d077&quot;&gt;BF: 0&lt;/font&gt;" style="text;html=1;strokeColor=none;fillColor=none;align=center;verticalAlign=middle;whiteSpace=wrap;rounded=0;" vertex="1" parent="6H4vvrLfv4xjmV8cVd2f-1">
                    &#xa;                    &#xa;&#xa;
                    <mxGeometry x="660" y="290" width="40" height="20" as="geometry"/>
                    &#xa;                    &#xa;&#xa;
                </mxCell>
                &#xa;                &#xa;&#xa;
                <mxCell id="6gUneZJ-KQSb6SAxSn32-24" value="" style="endArrow=none;html=1;strokeColor=#000000;" edge="1" parent="6H4vvrLfv4xjmV8cVd2f-1" source="6gUneZJ-KQSb6SAxSn32-19" target="6gUneZJ-KQSb6SAxSn32-18">
                    &#xa;                    &#xa;&#xa;
                    <mxGeometry width="50" height="50" relative="1" as="geometry">
                        &#xa;                        &#xa;&#xa;
                        <mxPoint x="800" y="880" as="sourcePoint"/>
                        &#xa;                        &#xa;&#xa;
                        <mxPoint x="850" y="830" as="targetPoint"/>
                        &#xa;                        &#xa;&#xa;
                    </mxGeometry>
                    &#xa;                    &#xa;&#xa;
                </mxCell>
                &#xa;                &#xa;&#xa;
                <mxCell id="6gUneZJ-KQSb6SAxSn32-25" value="" style="endArrow=none;html=1;strokeColor=#000000;" edge="1" parent="6H4vvrLfv4xjmV8cVd2f-1" source="6gUneZJ-KQSb6SAxSn32-18" target="6gUneZJ-KQSb6SAxSn32-26">
                    &#xa;                    &#xa;&#xa;
                    <mxGeometry width="50" height="50" relative="1" as="geometry">
                        &#xa;                        &#xa;&#xa;
                        <mxPoint x="810" y="890" as="sourcePoint"/>
                        &#xa;                        &#xa;&#xa;
                        <mxPoint x="671.8165322774366" y="441.7508669786839" as="targetPoint"/>
                        &#xa;                        &#xa;&#xa;
                    </mxGeometry>
                    &#xa;                    &#xa;&#xa;
                </mxCell>
                &#xa;                &#xa;&#xa;
                <mxCell id="6gUneZJ-KQSb6SAxSn32-26" value="23" style="ellipse;whiteSpace=wrap;html=1;aspect=fixed;strokeWidth=2;fillColor=#1ba1e2;fontColor=#ffffff;strokeColor=#006EAF;" vertex="1" parent="6H4vvrLfv4xjmV8cVd2f-1">
                    &#xa;                    &#xa;&#xa;
                    <mxGeometry x="620" y="280" width="40" height="40" as="geometry"/>
                    &#xa;                    &#xa;&#xa;
                </mxCell>
                &#xa;                &#xa;&#xa;
                <mxCell id="WDyEcnXeic9Q5UkR0kSp-0" value="&lt;font color=&quot;#97d077&quot;&gt;BF: 0&lt;/font&gt;" style="text;html=1;strokeColor=none;fillColor=none;align=center;verticalAlign=middle;whiteSpace=wrap;rounded=0;" vertex="1" parent="6H4vvrLfv4xjmV8cVd2f-1">
                    &#xa;                    &#xa;&#xa;
                    <mxGeometry x="600" y="227" width="40" height="20" as="geometry"/>
                    &#xa;                    &#xa;&#xa;
                </mxCell>
                &#xa;                &#xa;&#xa;
            </root>
            &#xa;            &#xa;&#xa;
        </mxGraphModel>
        &#xa;        &#xa;&#xa;
    </diagram>
    <diagram id="KevKG423E4hyWmWzJgQT" name="left_right_rotation">
        &#xa;
        <mxGraphModel dx="1322" dy="689" grid="1" gridSize="10" guides="1" tooltips="1" connect="1" arrows="1" fold="1" page="1" pageScale="1" pageWidth="850" pageHeight="1100" math="0" shadow="0">
            &#xa;
            <root>
                &#xa;
                <mxCell id="MAEtbOzRcpaLhLekgfOh-0"/>
                &#xa;
                <mxCell id="MAEtbOzRcpaLhLekgfOh-1" parent="MAEtbOzRcpaLhLekgfOh-0"/>
                &#xa;
                <mxCell id="n2iKd9C5PtmgCYEXLgz_-0" value="" style="rounded=0;whiteSpace=wrap;html=1;strokeColor=none;fillColor=#FFFFFF;" parent="MAEtbOzRcpaLhLekgfOh-1" vertex="1">
                    &#xa;
                    <mxGeometry x="15" y="185" width="805" height="205" as="geometry"/>
                    &#xa;
                </mxCell>
                &#xa;
                <mxCell id="qJKbSbZmaZ8dpNACsMC1-0" value="23" style="ellipse;whiteSpace=wrap;html=1;aspect=fixed;strokeColor=#006EAF;strokeWidth=2;fillColor=#1ba1e2;fontColor=#ffffff;" parent="MAEtbOzRcpaLhLekgfOh-1" vertex="1">
                    &#xa;
                    <mxGeometry x="200" y="200" width="40" height="40" as="geometry"/>
                    &#xa;
                </mxCell>
                &#xa;
                <mxCell id="qJKbSbZmaZ8dpNACsMC1-1" value="&lt;font color=&quot;#000000&quot;&gt;2&lt;/font&gt;" style="text;html=1;strokeColor=none;fillColor=none;align=center;verticalAlign=middle;whiteSpace=wrap;rounded=0;" parent="MAEtbOzRcpaLhLekgfOh-1" vertex="1">
                    &#xa;
                    <mxGeometry x="200" y="240" width="40" height="20" as="geometry"/>
                    &#xa;
                </mxCell>
                &#xa;
                <mxCell id="qJKbSbZmaZ8dpNACsMC1-2" value="17" style="ellipse;whiteSpace=wrap;html=1;aspect=fixed;strokeWidth=2;fillColor=#1ba1e2;fontColor=#ffffff;strokeColor=#FF8000;" parent="MAEtbOzRcpaLhLekgfOh-1" vertex="1">
                    &#xa;
                    <mxGeometry x="140" y="260" width="40" height="40" as="geometry"/>
                    &#xa;
                </mxCell>
                &#xa;
                <mxCell id="qJKbSbZmaZ8dpNACsMC1-3" value="21" style="ellipse;whiteSpace=wrap;html=1;aspect=fixed;strokeWidth=2;fillColor=#1ba1e2;fontColor=#ffffff;strokeColor=#FF8000;" parent="MAEtbOzRcpaLhLekgfOh-1" vertex="1">
                    &#xa;
                    <mxGeometry x="180" y="320" width="40" height="40" as="geometry"/>
                    &#xa;
                </mxCell>
                &#xa;
                <mxCell id="qJKbSbZmaZ8dpNACsMC1-4" value="&lt;font color=&quot;#000000&quot;&gt;0&lt;/font&gt;" style="text;html=1;strokeColor=none;fillColor=none;align=center;verticalAlign=middle;whiteSpace=wrap;rounded=0;" parent="MAEtbOzRcpaLhLekgfOh-1" vertex="1">
                    &#xa;
                    <mxGeometry x="180" y="360" width="40" height="20" as="geometry"/>
                    &#xa;
                </mxCell>
                &#xa;
                <mxCell id="qJKbSbZmaZ8dpNACsMC1-5" value="&lt;font color=&quot;#000000&quot;&gt;1&lt;/font&gt;" style="text;html=1;strokeColor=none;fillColor=none;align=center;verticalAlign=middle;whiteSpace=wrap;rounded=0;" parent="MAEtbOzRcpaLhLekgfOh-1" vertex="1">
                    &#xa;
                    <mxGeometry x="140" y="300" width="40" height="20" as="geometry"/>
                    &#xa;
                </mxCell>
                &#xa;
                <mxCell id="qJKbSbZmaZ8dpNACsMC1-6" value="&lt;font color=&quot;#000000&quot;&gt;BF: 0&lt;/font&gt;" style="text;html=1;strokeColor=none;fillColor=none;align=center;verticalAlign=middle;whiteSpace=wrap;rounded=0;" parent="MAEtbOzRcpaLhLekgfOh-1" vertex="1">
                    &#xa;
                    <mxGeometry x="140" y="330" width="40" height="20" as="geometry"/>
                    &#xa;
                </mxCell>
                &#xa;
                <mxCell id="qJKbSbZmaZ8dpNACsMC1-7" value="&lt;font color=&quot;#ff0000&quot;&gt;BF: 2&lt;/font&gt;" style="text;html=1;strokeColor=none;fillColor=none;align=center;verticalAlign=middle;whiteSpace=wrap;rounded=0;" parent="MAEtbOzRcpaLhLekgfOh-1" vertex="1">
                    &#xa;
                    <mxGeometry x="160" y="210" width="40" height="20" as="geometry"/>
                    &#xa;
                </mxCell>
                &#xa;
                <mxCell id="qJKbSbZmaZ8dpNACsMC1-8" value="" style="endArrow=none;html=1;strokeColor=#000000;" parent="MAEtbOzRcpaLhLekgfOh-1" source="qJKbSbZmaZ8dpNACsMC1-2" target="qJKbSbZmaZ8dpNACsMC1-0" edge="1">
                    &#xa;
                    <mxGeometry width="50" height="50" relative="1" as="geometry">
                        &#xa;
                        <mxPoint x="150" y="590" as="sourcePoint"/>
                        &#xa;
                        <mxPoint x="200" y="540" as="targetPoint"/>
                        &#xa;
                    </mxGeometry>
                    &#xa;
                </mxCell>
                &#xa;
                <mxCell id="qJKbSbZmaZ8dpNACsMC1-9" value="" style="endArrow=none;html=1;strokeColor=#000000;" parent="MAEtbOzRcpaLhLekgfOh-1" source="qJKbSbZmaZ8dpNACsMC1-3" target="qJKbSbZmaZ8dpNACsMC1-2" edge="1">
                    &#xa;
                    <mxGeometry width="50" height="50" relative="1" as="geometry">
                        &#xa;
                        <mxPoint x="160" y="600" as="sourcePoint"/>
                        &#xa;
                        <mxPoint x="210" y="550" as="targetPoint"/>
                        &#xa;
                    </mxGeometry>
                    &#xa;
                </mxCell>
                &#xa;
                <mxCell id="qJKbSbZmaZ8dpNACsMC1-10" value="&lt;font color=&quot;#000000&quot;&gt;Left-Right Case&lt;/font&gt;" style="text;html=1;strokeColor=none;fillColor=none;align=center;verticalAlign=middle;whiteSpace=wrap;rounded=0;" parent="MAEtbOzRcpaLhLekgfOh-1" vertex="1">
                    &#xa;
                    <mxGeometry x="20" y="270" width="100" height="20" as="geometry"/>
                    &#xa;
                </mxCell>
                &#xa;
                <mxCell id="6PrU-zZKSgBCCHmBzNp6-0" value="&lt;font color=&quot;#000000&quot;&gt;Right Rotation&lt;/font&gt;" style="html=1;shadow=0;dashed=0;align=center;verticalAlign=middle;shape=mxgraph.arrows2.arrow;dy=0.6;dx=40;notch=0;strokeColor=none;fillColor=#FFD966;" parent="MAEtbOzRcpaLhLekgfOh-1" vertex="1">
                    &#xa;
                    <mxGeometry x="520" y="255" width="100" height="70" as="geometry"/>
                    &#xa;
                </mxCell>
                &#xa;
                <mxCell id="6PrU-zZKSgBCCHmBzNp6-1" value="&lt;font color=&quot;#000000&quot;&gt;BF: -1&lt;/font&gt;" style="text;html=1;strokeColor=none;fillColor=none;align=center;verticalAlign=middle;whiteSpace=wrap;rounded=0;" parent="MAEtbOzRcpaLhLekgfOh-1" vertex="1">
                    &#xa;
                    <mxGeometry x="180" y="270" width="40" height="20" as="geometry"/>
                    &#xa;
                </mxCell>
                &#xa;
                <mxCell id="6PrU-zZKSgBCCHmBzNp6-2" value="" style="verticalLabelPosition=bottom;html=1;verticalAlign=top;strokeWidth=1;align=center;outlineConnect=0;dashed=0;outlineConnect=0;shape=mxgraph.aws3d.arrowNW;aspect=fixed;fillColor=#FFD966;strokeColor=none;" parent="MAEtbOzRcpaLhLekgfOh-1" vertex="1">
                    &#xa;
                    <mxGeometry x="134.5" y="310" width="45.5" height="26" as="geometry"/>
                    &#xa;
                </mxCell>
                &#xa;
                <mxCell id="6PrU-zZKSgBCCHmBzNp6-3" value="" style="verticalLabelPosition=bottom;html=1;verticalAlign=top;strokeWidth=1;align=center;outlineConnect=0;dashed=0;outlineConnect=0;shape=mxgraph.aws3d.arrowSW;aspect=fixed;strokeColor=none;fillColor=#FFD966;" parent="MAEtbOzRcpaLhLekgfOh-1" vertex="1">
                    &#xa;
                    <mxGeometry x="100" y="294" width="45.5" height="26" as="geometry"/>
                    &#xa;
                </mxCell>
                &#xa;
                <mxCell id="6PrU-zZKSgBCCHmBzNp6-4" value="23" style="ellipse;whiteSpace=wrap;html=1;aspect=fixed;strokeWidth=2;fillColor=#1ba1e2;fontColor=#ffffff;strokeColor=#FFD966;" parent="MAEtbOzRcpaLhLekgfOh-1" vertex="1">
                    &#xa;
                    <mxGeometry x="480" y="200" width="40" height="40" as="geometry"/>
                    &#xa;
                </mxCell>
                &#xa;
                <mxCell id="6PrU-zZKSgBCCHmBzNp6-5" value="&lt;font color=&quot;#000000&quot;&gt;2&lt;/font&gt;" style="text;html=1;strokeColor=none;fillColor=none;align=center;verticalAlign=middle;whiteSpace=wrap;rounded=0;" parent="MAEtbOzRcpaLhLekgfOh-1" vertex="1">
                    &#xa;
                    <mxGeometry x="480" y="240" width="40" height="20" as="geometry"/>
                    &#xa;
                </mxCell>
                &#xa;
                <mxCell id="6PrU-zZKSgBCCHmBzNp6-6" value="17" style="ellipse;whiteSpace=wrap;html=1;aspect=fixed;strokeWidth=2;fillColor=#1ba1e2;fontColor=#ffffff;strokeColor=#006EAF;" parent="MAEtbOzRcpaLhLekgfOh-1" vertex="1">
                    &#xa;
                    <mxGeometry x="360" y="320" width="40" height="40" as="geometry"/>
                    &#xa;
                </mxCell>
                &#xa;
                <mxCell id="6PrU-zZKSgBCCHmBzNp6-7" value="21" style="ellipse;whiteSpace=wrap;html=1;aspect=fixed;strokeWidth=2;fillColor=#1ba1e2;fontColor=#ffffff;strokeColor=#FFD966;" parent="MAEtbOzRcpaLhLekgfOh-1" vertex="1">
                    &#xa;
                    <mxGeometry x="420" y="260" width="40" height="40" as="geometry"/>
                    &#xa;
                </mxCell>
                &#xa;
                <mxCell id="6PrU-zZKSgBCCHmBzNp6-8" value="&lt;font color=&quot;#ffd966&quot;&gt;0&lt;/font&gt;" style="text;html=1;strokeColor=none;fillColor=none;align=center;verticalAlign=middle;whiteSpace=wrap;rounded=0;" parent="MAEtbOzRcpaLhLekgfOh-1" vertex="1">
                    &#xa;
                    <mxGeometry x="360" y="360" width="40" height="20" as="geometry"/>
                    &#xa;
                </mxCell>
                &#xa;
                <mxCell id="6PrU-zZKSgBCCHmBzNp6-9" value="&lt;font color=&quot;#ffd966&quot;&gt;1&lt;/font&gt;" style="text;html=1;strokeColor=none;fillColor=none;align=center;verticalAlign=middle;whiteSpace=wrap;rounded=0;" parent="MAEtbOzRcpaLhLekgfOh-1" vertex="1">
                    &#xa;
                    <mxGeometry x="420" y="300" width="40" height="20" as="geometry"/>
                    &#xa;
                </mxCell>
                &#xa;
                <mxCell id="6PrU-zZKSgBCCHmBzNp6-10" value="&lt;font color=&quot;#ffd966&quot;&gt;BF: 0&lt;/font&gt;" style="text;html=1;strokeColor=none;fillColor=none;align=center;verticalAlign=middle;whiteSpace=wrap;rounded=0;" parent="MAEtbOzRcpaLhLekgfOh-1" vertex="1">
                    &#xa;
                    <mxGeometry x="400" y="330" width="40" height="20" as="geometry"/>
                    &#xa;
                </mxCell>
                &#xa;
                <mxCell id="6PrU-zZKSgBCCHmBzNp6-11" value="&lt;font color=&quot;#ff0000&quot;&gt;BF: 2&lt;/font&gt;" style="text;html=1;strokeColor=none;fillColor=none;align=center;verticalAlign=middle;whiteSpace=wrap;rounded=0;" parent="MAEtbOzRcpaLhLekgfOh-1" vertex="1">
                    &#xa;
                    <mxGeometry x="440" y="210" width="40" height="20" as="geometry"/>
                    &#xa;
                </mxCell>
                &#xa;
                <mxCell id="6PrU-zZKSgBCCHmBzNp6-12" value="" style="endArrow=none;html=1;strokeColor=#000000;" parent="MAEtbOzRcpaLhLekgfOh-1" source="6PrU-zZKSgBCCHmBzNp6-7" target="6PrU-zZKSgBCCHmBzNp6-4" edge="1">
                    &#xa;
                    <mxGeometry width="50" height="50" relative="1" as="geometry">
                        &#xa;
                        <mxPoint x="394" y="220" as="sourcePoint"/>
                        &#xa;
                        <mxPoint x="525" y="660" as="targetPoint"/>
                        &#xa;
                    </mxGeometry>
                    &#xa;
                </mxCell>
                &#xa;
                <mxCell id="6PrU-zZKSgBCCHmBzNp6-13" value="" style="endArrow=none;html=1;strokeColor=#000000;" parent="MAEtbOzRcpaLhLekgfOh-1" source="6PrU-zZKSgBCCHmBzNp6-7" target="6PrU-zZKSgBCCHmBzNp6-6" edge="1">
                    &#xa;
                    <mxGeometry width="50" height="50" relative="1" as="geometry">
                        &#xa;
                        <mxPoint x="485" y="720" as="sourcePoint"/>
                        &#xa;
                        <mxPoint x="535" y="670" as="targetPoint"/>
                        &#xa;
                    </mxGeometry>
                    &#xa;
                </mxCell>
                &#xa;
                <mxCell id="6PrU-zZKSgBCCHmBzNp6-14" value="&lt;font color=&quot;#ffd966&quot;&gt;BF: 1&lt;/font&gt;" style="text;html=1;strokeColor=none;fillColor=none;align=center;verticalAlign=middle;whiteSpace=wrap;rounded=0;" parent="MAEtbOzRcpaLhLekgfOh-1" vertex="1">
                    &#xa;
                    <mxGeometry x="380" y="270" width="40" height="20" as="geometry"/>
                    &#xa;
                </mxCell>
                &#xa;
                <mxCell id="6PrU-zZKSgBCCHmBzNp6-18" value="&lt;font color=&quot;#000000&quot;&gt;Left Rotation&lt;/font&gt;" style="html=1;shadow=0;dashed=0;align=center;verticalAlign=middle;shape=mxgraph.arrows2.arrow;dy=0.6;dx=40;notch=0;strokeColor=none;fillColor=#FFD966;" parent="MAEtbOzRcpaLhLekgfOh-1" vertex="1">
                    &#xa;
                    <mxGeometry x="250" y="255" width="100" height="70" as="geometry"/>
                    &#xa;
                </mxCell>
                &#xa;
                <mxCell id="6PrU-zZKSgBCCHmBzNp6-19" value="23" style="ellipse;whiteSpace=wrap;html=1;aspect=fixed;strokeWidth=2;fillColor=#1ba1e2;fontColor=#ffffff;strokeColor=#006EAF;" parent="MAEtbOzRcpaLhLekgfOh-1" vertex="1">
                    &#xa;
                    <mxGeometry x="760" y="303" width="40" height="40" as="geometry"/>
                    &#xa;
                </mxCell>
                &#xa;
                <mxCell id="6PrU-zZKSgBCCHmBzNp6-20" value="&lt;font color=&quot;#000000&quot;&gt;0&lt;/font&gt;" style="text;html=1;strokeColor=none;fillColor=none;align=center;verticalAlign=middle;whiteSpace=wrap;rounded=0;" parent="MAEtbOzRcpaLhLekgfOh-1" vertex="1">
                    &#xa;
                    <mxGeometry x="640" y="340" width="40" height="20" as="geometry"/>
                    &#xa;
                </mxCell>
                &#xa;
                <mxCell id="6PrU-zZKSgBCCHmBzNp6-21" value="17" style="ellipse;whiteSpace=wrap;html=1;aspect=fixed;strokeWidth=2;fillColor=#1ba1e2;fontColor=#ffffff;strokeColor=#006EAF;" parent="MAEtbOzRcpaLhLekgfOh-1" vertex="1">
                    &#xa;
                    <mxGeometry x="640" y="300" width="40" height="40" as="geometry"/>
                    &#xa;
                </mxCell>
                &#xa;
                <mxCell id="6PrU-zZKSgBCCHmBzNp6-22" value="21" style="ellipse;whiteSpace=wrap;html=1;aspect=fixed;strokeWidth=2;fillColor=#1ba1e2;fontColor=#ffffff;strokeColor=#006EAF;" parent="MAEtbOzRcpaLhLekgfOh-1" vertex="1">
                    &#xa;
                    <mxGeometry x="700" y="240" width="40" height="40" as="geometry"/>
                    &#xa;
                </mxCell>
                &#xa;
                <mxCell id="6PrU-zZKSgBCCHmBzNp6-23" value="&lt;font color=&quot;#97d077&quot;&gt;0&lt;/font&gt;" style="text;html=1;strokeColor=none;fillColor=none;align=center;verticalAlign=middle;whiteSpace=wrap;rounded=0;" parent="MAEtbOzRcpaLhLekgfOh-1" vertex="1">
                    &#xa;
                    <mxGeometry x="760" y="343" width="40" height="20" as="geometry"/>
                    &#xa;
                </mxCell>
                &#xa;
                <mxCell id="6PrU-zZKSgBCCHmBzNp6-24" value="&lt;font color=&quot;#97d077&quot;&gt;1&lt;/font&gt;" style="text;html=1;strokeColor=none;fillColor=none;align=center;verticalAlign=middle;whiteSpace=wrap;rounded=0;" parent="MAEtbOzRcpaLhLekgfOh-1" vertex="1">
                    &#xa;
                    <mxGeometry x="700" y="280" width="40" height="20" as="geometry"/>
                    &#xa;
                </mxCell>
                &#xa;
                <mxCell id="6PrU-zZKSgBCCHmBzNp6-25" value="&lt;font color=&quot;#000000&quot;&gt;BF: 0&lt;/font&gt;" style="text;html=1;strokeColor=none;fillColor=none;align=center;verticalAlign=middle;whiteSpace=wrap;rounded=0;" parent="MAEtbOzRcpaLhLekgfOh-1" vertex="1">
                    &#xa;
                    <mxGeometry x="600" y="313" width="40" height="20" as="geometry"/>
                    &#xa;
                </mxCell>
                &#xa;
                <mxCell id="6PrU-zZKSgBCCHmBzNp6-26" value="&lt;font color=&quot;#97d077&quot;&gt;BF: 0&lt;/font&gt;" style="text;html=1;strokeColor=none;fillColor=none;align=center;verticalAlign=middle;whiteSpace=wrap;rounded=0;" parent="MAEtbOzRcpaLhLekgfOh-1" vertex="1">
                    &#xa;
                    <mxGeometry x="740" y="250" width="40" height="20" as="geometry"/>
                    &#xa;
                </mxCell>
                &#xa;
                <mxCell id="6PrU-zZKSgBCCHmBzNp6-27" value="" style="endArrow=none;html=1;strokeColor=#000000;" parent="MAEtbOzRcpaLhLekgfOh-1" source="6PrU-zZKSgBCCHmBzNp6-22" target="6PrU-zZKSgBCCHmBzNp6-19" edge="1">
                    &#xa;
                    <mxGeometry width="50" height="50" relative="1" as="geometry">
                        &#xa;
                        <mxPoint x="664" y="390" as="sourcePoint"/>
                        &#xa;
                        <mxPoint x="795" y="830" as="targetPoint"/>
                        &#xa;
                    </mxGeometry>
                    &#xa;
                </mxCell>
                &#xa;
                <mxCell id="6PrU-zZKSgBCCHmBzNp6-28" value="" style="endArrow=none;html=1;strokeColor=#000000;" parent="MAEtbOzRcpaLhLekgfOh-1" source="6PrU-zZKSgBCCHmBzNp6-22" target="6PrU-zZKSgBCCHmBzNp6-21" edge="1">
                    &#xa;
                    <mxGeometry width="50" height="50" relative="1" as="geometry">
                        &#xa;
                        <mxPoint x="755" y="890" as="sourcePoint"/>
                        &#xa;
                        <mxPoint x="805" y="840" as="targetPoint"/>
                        &#xa;
                    </mxGeometry>
                    &#xa;
                </mxCell>
                &#xa;
                <mxCell id="6PrU-zZKSgBCCHmBzNp6-29" value="&lt;font color=&quot;#97d077&quot;&gt;BF: 0&lt;/font&gt;" style="text;html=1;strokeColor=none;fillColor=none;align=center;verticalAlign=middle;whiteSpace=wrap;rounded=0;" parent="MAEtbOzRcpaLhLekgfOh-1" vertex="1">
                    &#xa;
                    <mxGeometry x="720" y="316" width="40" height="20" as="geometry"/>
                    &#xa;
                </mxCell>
                &#xa;
                <mxCell id="TNk8Ff1X7rUeLjQL4vUc-0" value="" style="verticalLabelPosition=bottom;html=1;verticalAlign=top;strokeWidth=1;align=center;outlineConnect=0;dashed=0;outlineConnect=0;shape=mxgraph.aws3d.arrowSE;aspect=fixed;fillColor=#FFD966;strokeColor=none;" parent="MAEtbOzRcpaLhLekgfOh-1" vertex="1">
                    &#xa;
                    <mxGeometry x="510" y="237" width="45.5" height="26" as="geometry"/>
                    &#xa;
                </mxCell>
                &#xa;
                <mxCell id="TNk8Ff1X7rUeLjQL4vUc-1" value="" style="verticalLabelPosition=bottom;html=1;verticalAlign=top;strokeWidth=1;align=center;outlineConnect=0;dashed=0;outlineConnect=0;shape=mxgraph.aws3d.arrowNE;aspect=fixed;fillColor=#FFD966;strokeColor=none;" parent="MAEtbOzRcpaLhLekgfOh-1" vertex="1">
                    &#xa;
                    <mxGeometry x="460" y="260" width="45.5" height="26" as="geometry"/>
                    &#xa;
                </mxCell>
                &#xa;
            </root>
            &#xa;
        </mxGraphModel>
        &#xa;
    </diagram>
    <diagram id="FA3sbQHiQxDtoid_s47t" name="right_left_rotation">
        &#xa;
        <mxGraphModel dx="1322" dy="689" grid="1" gridSize="10" guides="1" tooltips="1" connect="1" arrows="1" fold="1" page="1" pageScale="1" pageWidth="850" pageHeight="1100" math="0" shadow="0">
            &#xa;
            <root>
                &#xa;
                <mxCell id="j8f4Xj84kVHumuG1ZdRH-0"/>
                &#xa;
                <mxCell id="j8f4Xj84kVHumuG1ZdRH-1" parent="j8f4Xj84kVHumuG1ZdRH-0"/>
                &#xa;
                <mxCell id="RN0sYadTh4qOBDFWEh7C-0" value="" style="rounded=0;whiteSpace=wrap;html=1;strokeColor=none;fillColor=#FFFFFF;" parent="j8f4Xj84kVHumuG1ZdRH-1" vertex="1">
                    &#xa;
                    <mxGeometry x="60" y="185" width="780" height="205" as="geometry"/>
                    &#xa;
                </mxCell>
                &#xa;
                <mxCell id="VfUK7Uz6IUaGe52R5VxJ-0" value="23" style="ellipse;whiteSpace=wrap;html=1;aspect=fixed;strokeColor=#006EAF;strokeWidth=2;fillColor=#1ba1e2;fontColor=#ffffff;" parent="j8f4Xj84kVHumuG1ZdRH-1" vertex="1">
                    &#xa;
                    <mxGeometry x="160" y="200" width="40" height="40" as="geometry"/>
                    &#xa;
                </mxCell>
                &#xa;
                <mxCell id="VfUK7Uz6IUaGe52R5VxJ-1" value="&lt;font color=&quot;#000000&quot;&gt;2&lt;/font&gt;" style="text;html=1;strokeColor=none;fillColor=none;align=center;verticalAlign=middle;whiteSpace=wrap;rounded=0;" parent="j8f4Xj84kVHumuG1ZdRH-1" vertex="1">
                    &#xa;
                    <mxGeometry x="160" y="240" width="40" height="20" as="geometry"/>
                    &#xa;
                </mxCell>
                &#xa;
                <mxCell id="VfUK7Uz6IUaGe52R5VxJ-2" value="37" style="ellipse;whiteSpace=wrap;html=1;aspect=fixed;strokeWidth=2;fillColor=#1ba1e2;fontColor=#ffffff;strokeColor=#FF8000;" parent="j8f4Xj84kVHumuG1ZdRH-1" vertex="1">
                    &#xa;
                    <mxGeometry x="220" y="260" width="40" height="40" as="geometry"/>
                    &#xa;
                </mxCell>
                &#xa;
                <mxCell id="VfUK7Uz6IUaGe52R5VxJ-3" value="31" style="ellipse;whiteSpace=wrap;html=1;aspect=fixed;strokeWidth=2;fillColor=#1ba1e2;fontColor=#ffffff;strokeColor=#FF8000;" parent="j8f4Xj84kVHumuG1ZdRH-1" vertex="1">
                    &#xa;
                    <mxGeometry x="180" y="320" width="40" height="40" as="geometry"/>
                    &#xa;
                </mxCell>
                &#xa;
                <mxCell id="VfUK7Uz6IUaGe52R5VxJ-4" value="&lt;font color=&quot;#000000&quot;&gt;0&lt;/font&gt;" style="text;html=1;strokeColor=none;fillColor=none;align=center;verticalAlign=middle;whiteSpace=wrap;rounded=0;" parent="j8f4Xj84kVHumuG1ZdRH-1" vertex="1">
                    &#xa;
                    <mxGeometry x="180" y="360" width="40" height="20" as="geometry"/>
                    &#xa;
                </mxCell>
                &#xa;
                <mxCell id="VfUK7Uz6IUaGe52R5VxJ-5" value="&lt;font color=&quot;#000000&quot;&gt;1&lt;/font&gt;" style="text;html=1;strokeColor=none;fillColor=none;align=center;verticalAlign=middle;whiteSpace=wrap;rounded=0;" parent="j8f4Xj84kVHumuG1ZdRH-1" vertex="1">
                    &#xa;
                    <mxGeometry x="220" y="300" width="40" height="20" as="geometry"/>
                    &#xa;
                </mxCell>
                &#xa;
                <mxCell id="VfUK7Uz6IUaGe52R5VxJ-6" value="&lt;font color=&quot;#000000&quot;&gt;BF: 0&lt;/font&gt;" style="text;html=1;strokeColor=none;fillColor=none;align=center;verticalAlign=middle;whiteSpace=wrap;rounded=0;" parent="j8f4Xj84kVHumuG1ZdRH-1" vertex="1">
                    &#xa;
                    <mxGeometry x="140" y="330" width="40" height="20" as="geometry"/>
                    &#xa;
                </mxCell>
                &#xa;
                <mxCell id="VfUK7Uz6IUaGe52R5VxJ-7" value="&lt;font color=&quot;#000000&quot;&gt;BF: 1&lt;/font&gt;&lt;span style=&quot;color: rgba(0 , 0 , 0 , 0) ; font-family: monospace ; font-size: 0px&quot;&gt;%3CmxGraphModel%3E%3Croot%3E%3CmxCell%20id%3D%220%22%2F%3E%3CmxCell%20id%3D%221%22%20parent%3D%220%22%2F%3E%3CmxCell%20id%3D%222%22%20value%3D%22%26lt%3Bfont%20color%3D%26quot%3B%23000000%26quot%3B%26gt%3B1%26lt%3B%2Ffont%26gt%3B%22%20style%3D%22text%3Bhtml%3D1%3BstrokeColor%3Dnone%3BfillColor%3Dnone%3Balign%3Dcenter%3BverticalAlign%3Dmiddle%3BwhiteSpace%3Dwrap%3Brounded%3D0%3B%22%20vertex%3D%221%22%20parent%3D%221%22%3E%3CmxGeometry%20x%3D%22330%22%20y%3D%22490%22%20width%3D%2240%22%20height%3D%2220%22%20as%3D%22geometry%22%2F%3E%3C%2FmxCell%3E%3C%2Froot%3E%3C%2FmxGraphModel%3E&lt;/span&gt;" style="text;html=1;strokeColor=none;fillColor=none;align=center;verticalAlign=middle;whiteSpace=wrap;rounded=0;" parent="j8f4Xj84kVHumuG1ZdRH-1" vertex="1">
                    &#xa;
                    <mxGeometry x="180" y="270" width="40" height="20" as="geometry"/>
                    &#xa;
                </mxCell>
                &#xa;
                <mxCell id="VfUK7Uz6IUaGe52R5VxJ-8" value="&lt;font color=&quot;#ff0000&quot;&gt;BF: -2&lt;/font&gt;" style="text;html=1;strokeColor=none;fillColor=none;align=center;verticalAlign=middle;whiteSpace=wrap;rounded=0;" parent="j8f4Xj84kVHumuG1ZdRH-1" vertex="1">
                    &#xa;
                    <mxGeometry x="200" y="210" width="40" height="20" as="geometry"/>
                    &#xa;
                </mxCell>
                &#xa;
                <mxCell id="VfUK7Uz6IUaGe52R5VxJ-9" value="" style="endArrow=none;html=1;strokeColor=#000000;" parent="j8f4Xj84kVHumuG1ZdRH-1" source="VfUK7Uz6IUaGe52R5VxJ-3" target="VfUK7Uz6IUaGe52R5VxJ-2" edge="1">
                    &#xa;
                    <mxGeometry width="50" height="50" relative="1" as="geometry">
                        &#xa;
                        <mxPoint x="20" y="620" as="sourcePoint"/>
                        &#xa;
                        <mxPoint x="70" y="570" as="targetPoint"/>
                        &#xa;
                    </mxGeometry>
                    &#xa;
                </mxCell>
                &#xa;
                <mxCell id="VfUK7Uz6IUaGe52R5VxJ-10" value="" style="endArrow=none;html=1;strokeColor=#000000;" parent="j8f4Xj84kVHumuG1ZdRH-1" source="VfUK7Uz6IUaGe52R5VxJ-2" target="VfUK7Uz6IUaGe52R5VxJ-0" edge="1">
                    &#xa;
                    <mxGeometry width="50" height="50" relative="1" as="geometry">
                        &#xa;
                        <mxPoint x="30" y="630" as="sourcePoint"/>
                        &#xa;
                        <mxPoint x="80" y="580" as="targetPoint"/>
                        &#xa;
                    </mxGeometry>
                    &#xa;
                </mxCell>
                &#xa;
                <mxCell id="VfUK7Uz6IUaGe52R5VxJ-11" value="&lt;font color=&quot;#000000&quot;&gt;Right-Left Case&lt;/font&gt;" style="text;html=1;strokeColor=none;fillColor=none;align=center;verticalAlign=middle;whiteSpace=wrap;rounded=0;" parent="j8f4Xj84kVHumuG1ZdRH-1" vertex="1">
                    &#xa;
                    <mxGeometry x="60" y="270" width="100" height="20" as="geometry"/>
                    &#xa;
                </mxCell>
                &#xa;
                <mxCell id="coqY0tOLQcmhJzaruCzJ-0" value="" style="verticalLabelPosition=bottom;html=1;verticalAlign=top;strokeWidth=1;align=center;outlineConnect=0;dashed=0;outlineConnect=0;shape=mxgraph.aws3d.arrowSE;aspect=fixed;fillColor=#FFD966;strokeColor=none;" parent="j8f4Xj84kVHumuG1ZdRH-1" vertex="1">
                    &#xa;
                    <mxGeometry x="260" y="294" width="45.5" height="26" as="geometry"/>
                    &#xa;
                </mxCell>
                &#xa;
                <mxCell id="coqY0tOLQcmhJzaruCzJ-1" value="" style="verticalLabelPosition=bottom;html=1;verticalAlign=top;strokeWidth=1;align=center;outlineConnect=0;dashed=0;outlineConnect=0;shape=mxgraph.aws3d.arrowNE;aspect=fixed;fillColor=#FFD966;strokeColor=none;" parent="j8f4Xj84kVHumuG1ZdRH-1" vertex="1">
                    &#xa;
                    <mxGeometry x="220" y="320" width="45.5" height="26" as="geometry"/>
                    &#xa;
                </mxCell>
                &#xa;
                <mxCell id="4_DVavcs7ELs_zQ4WJBw-0" value="&lt;font color=&quot;#000000&quot;&gt;Right Rotation&lt;/font&gt;" style="html=1;shadow=0;dashed=0;align=center;verticalAlign=middle;shape=mxgraph.arrows2.arrow;dy=0.6;dx=40;notch=0;strokeColor=none;fillColor=#FFD966;" parent="j8f4Xj84kVHumuG1ZdRH-1" vertex="1">
                    &#xa;
                    <mxGeometry x="300" y="245" width="100" height="70" as="geometry"/>
                    &#xa;
                </mxCell>
                &#xa;
                <mxCell id="4_DVavcs7ELs_zQ4WJBw-1" value="23" style="ellipse;whiteSpace=wrap;html=1;aspect=fixed;strokeWidth=2;fillColor=#1ba1e2;fontColor=#ffffff;strokeColor=#FFD966;" parent="j8f4Xj84kVHumuG1ZdRH-1" vertex="1">
                    &#xa;
                    <mxGeometry x="400" y="200" width="40" height="40" as="geometry"/>
                    &#xa;
                </mxCell>
                &#xa;
                <mxCell id="4_DVavcs7ELs_zQ4WJBw-2" value="&lt;font color=&quot;#000000&quot;&gt;2&lt;/font&gt;" style="text;html=1;strokeColor=none;fillColor=none;align=center;verticalAlign=middle;whiteSpace=wrap;rounded=0;" parent="j8f4Xj84kVHumuG1ZdRH-1" vertex="1">
                    &#xa;
                    <mxGeometry x="400" y="240" width="40" height="20" as="geometry"/>
                    &#xa;
                </mxCell>
                &#xa;
                <mxCell id="4_DVavcs7ELs_zQ4WJBw-3" value="37" style="ellipse;whiteSpace=wrap;html=1;aspect=fixed;strokeWidth=2;fillColor=#1ba1e2;fontColor=#ffffff;strokeColor=#006EAF;" parent="j8f4Xj84kVHumuG1ZdRH-1" vertex="1">
                    &#xa;
                    <mxGeometry x="520" y="320" width="40" height="40" as="geometry"/>
                    &#xa;
                </mxCell>
                &#xa;
                <mxCell id="4_DVavcs7ELs_zQ4WJBw-4" value="31" style="ellipse;whiteSpace=wrap;html=1;aspect=fixed;strokeWidth=2;fillColor=#1ba1e2;fontColor=#ffffff;strokeColor=#FFD966;" parent="j8f4Xj84kVHumuG1ZdRH-1" vertex="1">
                    &#xa;
                    <mxGeometry x="460" y="260" width="40" height="40" as="geometry"/>
                    &#xa;
                </mxCell>
                &#xa;
                <mxCell id="4_DVavcs7ELs_zQ4WJBw-5" value="&lt;font color=&quot;#ffd966&quot;&gt;0&lt;/font&gt;" style="text;html=1;strokeColor=none;fillColor=none;align=center;verticalAlign=middle;whiteSpace=wrap;rounded=0;" parent="j8f4Xj84kVHumuG1ZdRH-1" vertex="1">
                    &#xa;
                    <mxGeometry x="520" y="360" width="40" height="20" as="geometry"/>
                    &#xa;
                </mxCell>
                &#xa;
                <mxCell id="4_DVavcs7ELs_zQ4WJBw-6" value="&lt;font color=&quot;#ffd966&quot;&gt;1&lt;/font&gt;" style="text;html=1;strokeColor=none;fillColor=none;align=center;verticalAlign=middle;whiteSpace=wrap;rounded=0;" parent="j8f4Xj84kVHumuG1ZdRH-1" vertex="1">
                    &#xa;
                    <mxGeometry x="460" y="300" width="40" height="20" as="geometry"/>
                    &#xa;
                </mxCell>
                &#xa;
                <mxCell id="4_DVavcs7ELs_zQ4WJBw-7" value="&lt;font color=&quot;#ffd966&quot;&gt;BF: 0&lt;/font&gt;" style="text;html=1;strokeColor=none;fillColor=none;align=center;verticalAlign=middle;whiteSpace=wrap;rounded=0;" parent="j8f4Xj84kVHumuG1ZdRH-1" vertex="1">
                    &#xa;
                    <mxGeometry x="480" y="330" width="40" height="20" as="geometry"/>
                    &#xa;
                </mxCell>
                &#xa;
                <mxCell id="4_DVavcs7ELs_zQ4WJBw-8" value="&lt;font color=&quot;#ffd966&quot;&gt;BF: -1&lt;span style=&quot;font-family: monospace ; font-size: 0px&quot;&gt;%3CmxGraphModel%3E%3Croot%3E%3CmxCell%20id%3D%220%22%2F%3E%3CmxCell%20id%3D%221%22%20parent%3D%220%22%2F%3E%3CmxCell%20id%3D%222%22%20value%3D%22%26lt%3Bfont%20color%3D%26quot%3B%23000000%26quot%3B%26gt%3B1%26lt%3B%2Ffont%26gt%3B%22%20style%3D%22text%3Bhtml%3D1%3BstrokeColor%3Dnone%3BfillColor%3Dnone%3Balign%3Dcenter%3BverticalAlign%3Dmiddle%3BwhiteSpace%3Dwrap%3Brounded%3D0%3B%22%20vertex%3D%221%22%20parent%3D%221%22%3E%3CmxGeometry%20x%3D%22330%22%20y%3D%22490%22%20width%3D%2240%22%20height%3D%2220%22%20as%3D%22geometry%22%2F%3E%3C%2FmxCell%3E%3C%2Froot%3E%3C%2FmxGraphModel%3-E&lt;/span&gt;&lt;/font&gt;" style="text;html=1;strokeColor=none;fillColor=none;align=center;verticalAlign=middle;whiteSpace=wrap;rounded=0;" parent="j8f4Xj84kVHumuG1ZdRH-1" vertex="1">
                    &#xa;
                    <mxGeometry x="500" y="270" width="40" height="20" as="geometry"/>
                    &#xa;
                </mxCell>
                &#xa;
                <mxCell id="4_DVavcs7ELs_zQ4WJBw-9" value="&lt;font color=&quot;#ff0000&quot;&gt;BF: -2&lt;/font&gt;" style="text;html=1;strokeColor=none;fillColor=none;align=center;verticalAlign=middle;whiteSpace=wrap;rounded=0;" parent="j8f4Xj84kVHumuG1ZdRH-1" vertex="1">
                    &#xa;
                    <mxGeometry x="440" y="210" width="40" height="20" as="geometry"/>
                    &#xa;
                </mxCell>
                &#xa;
                <mxCell id="4_DVavcs7ELs_zQ4WJBw-10" value="" style="endArrow=none;html=1;strokeColor=#000000;" parent="j8f4Xj84kVHumuG1ZdRH-1" source="4_DVavcs7ELs_zQ4WJBw-4" target="4_DVavcs7ELs_zQ4WJBw-3" edge="1">
                    &#xa;
                    <mxGeometry width="50" height="50" relative="1" as="geometry">
                        &#xa;
                        <mxPoint x="260" y="620" as="sourcePoint"/>
                        &#xa;
                        <mxPoint x="310" y="570" as="targetPoint"/>
                        &#xa;
                    </mxGeometry>
                    &#xa;
                </mxCell>
                &#xa;
                <mxCell id="4_DVavcs7ELs_zQ4WJBw-11" value="" style="endArrow=none;html=1;strokeColor=#000000;" parent="j8f4Xj84kVHumuG1ZdRH-1" source="4_DVavcs7ELs_zQ4WJBw-4" target="4_DVavcs7ELs_zQ4WJBw-1" edge="1">
                    &#xa;
                    <mxGeometry width="50" height="50" relative="1" as="geometry">
                        &#xa;
                        <mxPoint x="270" y="630" as="sourcePoint"/>
                        &#xa;
                        <mxPoint x="320" y="580" as="targetPoint"/>
                        &#xa;
                    </mxGeometry>
                    &#xa;
                </mxCell>
                &#xa;
                <mxCell id="ysa5j5wOjl0-JjJESmnU-0" value="&lt;font color=&quot;#000000&quot;&gt;Left Rotation&lt;/font&gt;" style="html=1;shadow=0;dashed=0;align=center;verticalAlign=middle;shape=mxgraph.arrows2.arrow;dy=0.6;dx=40;notch=0;strokeColor=none;fillColor=#FFD966;" parent="j8f4Xj84kVHumuG1ZdRH-1" vertex="1">
                    &#xa;
                    <mxGeometry x="560" y="245" width="100" height="70" as="geometry"/>
                    &#xa;
                </mxCell>
                &#xa;
                <mxCell id="0Nbd2F19pyAMoeWWJ-uB-0" value="" style="verticalLabelPosition=bottom;html=1;verticalAlign=top;strokeWidth=1;align=center;outlineConnect=0;dashed=0;outlineConnect=0;shape=mxgraph.aws3d.arrowNW;aspect=fixed;fillColor=#FFD966;strokeColor=none;" parent="j8f4Xj84kVHumuG1ZdRH-1" vertex="1">
                    &#xa;
                    <mxGeometry x="414.5" y="260" width="45.5" height="26" as="geometry"/>
                    &#xa;
                </mxCell>
                &#xa;
                <mxCell id="0Nbd2F19pyAMoeWWJ-uB-1" value="" style="verticalLabelPosition=bottom;html=1;verticalAlign=top;strokeWidth=1;align=center;outlineConnect=0;dashed=0;outlineConnect=0;shape=mxgraph.aws3d.arrowSW;aspect=fixed;strokeColor=none;fillColor=#FFD966;" parent="j8f4Xj84kVHumuG1ZdRH-1" vertex="1">
                    &#xa;
                    <mxGeometry x="354.5" y="204" width="45.5" height="26" as="geometry"/>
                    &#xa;
                </mxCell>
                &#xa;
                <mxCell id="aanjgQJDtsf_efs9Gput-0" value="37" style="ellipse;whiteSpace=wrap;html=1;aspect=fixed;strokeWidth=2;fillColor=#1ba1e2;fontColor=#ffffff;strokeColor=#006EAF;" parent="j8f4Xj84kVHumuG1ZdRH-1" vertex="1">
                    &#xa;
                    <mxGeometry x="780" y="303" width="40" height="40" as="geometry"/>
                    &#xa;
                </mxCell>
                &#xa;
                <mxCell id="aanjgQJDtsf_efs9Gput-1" value="&lt;font color=&quot;#000000&quot;&gt;0&lt;/font&gt;" style="text;html=1;strokeColor=none;fillColor=none;align=center;verticalAlign=middle;whiteSpace=wrap;rounded=0;" parent="j8f4Xj84kVHumuG1ZdRH-1" vertex="1">
                    &#xa;
                    <mxGeometry x="780" y="343" width="40" height="20" as="geometry"/>
                    &#xa;
                </mxCell>
                &#xa;
                <mxCell id="aanjgQJDtsf_efs9Gput-2" value="23" style="ellipse;whiteSpace=wrap;html=1;aspect=fixed;strokeWidth=2;fillColor=#1ba1e2;fontColor=#ffffff;strokeColor=#006EAF;" parent="j8f4Xj84kVHumuG1ZdRH-1" vertex="1">
                    &#xa;
                    <mxGeometry x="660" y="300" width="40" height="40" as="geometry"/>
                    &#xa;
                </mxCell>
                &#xa;
                <mxCell id="aanjgQJDtsf_efs9Gput-3" value="31" style="ellipse;whiteSpace=wrap;html=1;aspect=fixed;strokeWidth=2;fillColor=#1ba1e2;fontColor=#ffffff;strokeColor=#006EAF;" parent="j8f4Xj84kVHumuG1ZdRH-1" vertex="1">
                    &#xa;
                    <mxGeometry x="720" y="240" width="40" height="40" as="geometry"/>
                    &#xa;
                </mxCell>
                &#xa;
                <mxCell id="aanjgQJDtsf_efs9Gput-4" value="&lt;font color=&quot;#97d077&quot;&gt;0&lt;/font&gt;" style="text;html=1;strokeColor=none;fillColor=none;align=center;verticalAlign=middle;whiteSpace=wrap;rounded=0;" parent="j8f4Xj84kVHumuG1ZdRH-1" vertex="1">
                    &#xa;
                    <mxGeometry x="660" y="340" width="40" height="20" as="geometry"/>
                    &#xa;
                </mxCell>
                &#xa;
                <mxCell id="aanjgQJDtsf_efs9Gput-5" value="&lt;font color=&quot;#97d077&quot;&gt;1&lt;/font&gt;" style="text;html=1;strokeColor=none;fillColor=none;align=center;verticalAlign=middle;whiteSpace=wrap;rounded=0;" parent="j8f4Xj84kVHumuG1ZdRH-1" vertex="1">
                    &#xa;
                    <mxGeometry x="720" y="280" width="40" height="20" as="geometry"/>
                    &#xa;
                </mxCell>
                &#xa;
                <mxCell id="aanjgQJDtsf_efs9Gput-6" value="&lt;font color=&quot;#000000&quot;&gt;BF: 0&lt;/font&gt;" style="text;html=1;strokeColor=none;fillColor=none;align=center;verticalAlign=middle;whiteSpace=wrap;rounded=0;" parent="j8f4Xj84kVHumuG1ZdRH-1" vertex="1">
                    &#xa;
                    <mxGeometry x="740" y="310" width="40" height="20" as="geometry"/>
                    &#xa;
                </mxCell>
                &#xa;
                <mxCell id="aanjgQJDtsf_efs9Gput-7" value="&lt;font color=&quot;#97d077&quot;&gt;BF: 0&lt;/font&gt;" style="text;html=1;strokeColor=none;fillColor=none;align=center;verticalAlign=middle;whiteSpace=wrap;rounded=0;" parent="j8f4Xj84kVHumuG1ZdRH-1" vertex="1">
                    &#xa;
                    <mxGeometry x="760" y="250" width="40" height="20" as="geometry"/>
                    &#xa;
                </mxCell>
                &#xa;
                <mxCell id="aanjgQJDtsf_efs9Gput-8" value="" style="endArrow=none;html=1;strokeColor=#000000;" parent="j8f4Xj84kVHumuG1ZdRH-1" source="aanjgQJDtsf_efs9Gput-3" target="aanjgQJDtsf_efs9Gput-0" edge="1">
                    &#xa;
                    <mxGeometry width="50" height="50" relative="1" as="geometry">
                        &#xa;
                        <mxPoint x="684" y="390" as="sourcePoint"/>
                        &#xa;
                        <mxPoint x="815" y="830" as="targetPoint"/>
                        &#xa;
                    </mxGeometry>
                    &#xa;
                </mxCell>
                &#xa;
                <mxCell id="aanjgQJDtsf_efs9Gput-9" value="" style="endArrow=none;html=1;strokeColor=#000000;" parent="j8f4Xj84kVHumuG1ZdRH-1" source="aanjgQJDtsf_efs9Gput-3" target="aanjgQJDtsf_efs9Gput-2" edge="1">
                    &#xa;
                    <mxGeometry width="50" height="50" relative="1" as="geometry">
                        &#xa;
                        <mxPoint x="775" y="890" as="sourcePoint"/>
                        &#xa;
                        <mxPoint x="825" y="840" as="targetPoint"/>
                        &#xa;
                    </mxGeometry>
                    &#xa;
                </mxCell>
                &#xa;
                <mxCell id="aanjgQJDtsf_efs9Gput-10" value="&lt;font color=&quot;#97d077&quot;&gt;BF: 0&lt;/font&gt;" style="text;html=1;strokeColor=none;fillColor=none;align=center;verticalAlign=middle;whiteSpace=wrap;rounded=0;" parent="j8f4Xj84kVHumuG1ZdRH-1" vertex="1">
                    &#xa;
                    <mxGeometry x="620" y="310" width="40" height="20" as="geometry"/>
                    &#xa;
                </mxCell>
                &#xa;
            </root>
            &#xa;
        </mxGraphModel>
        &#xa;
    </diagram>
    <diagram id="-xX7yjW6dQFBl57emhi_" name="left_rotation">
        <mxGraphModel dx="1322" dy="689" grid="1" gridSize="10" guides="1" tooltips="1" connect="1" arrows="1" fold="1" page="1" pageScale="1" pageWidth="850" pageHeight="1100" math="0" shadow="0">
            <root>
                <mxCell id="-OWpXkWN_KL6rJydBLoS-0"/>
                <mxCell id="-OWpXkWN_KL6rJydBLoS-1" parent="-OWpXkWN_KL6rJydBLoS-0"/>
                <mxCell id="96k6uJDT67wG8lBuF2kQ-0" value="" style="rounded=0;whiteSpace=wrap;html=1;strokeColor=none;fillColor=#FFFFFF;" parent="-OWpXkWN_KL6rJydBLoS-1" vertex="1">
                    <mxGeometry x="55" y="185" width="615" height="205" as="geometry"/>
                </mxCell>
                <mxCell id="3eQlrG0zNZD1PU7YpAZI-0" value="23" style="ellipse;whiteSpace=wrap;html=1;aspect=fixed;strokeWidth=2;fillColor=#1ba1e2;fontColor=#ffffff;strokeColor=#FF8000;" parent="-OWpXkWN_KL6rJydBLoS-1" vertex="1">
                    <mxGeometry x="160" y="200" width="40" height="40" as="geometry"/>
                </mxCell>
                <mxCell id="3eQlrG0zNZD1PU7YpAZI-1" value="&lt;font color=&quot;#000000&quot;&gt;2&lt;/font&gt;" style="text;html=1;strokeColor=none;fillColor=none;align=center;verticalAlign=middle;whiteSpace=wrap;rounded=0;" parent="-OWpXkWN_KL6rJydBLoS-1" vertex="1">
                    <mxGeometry x="160" y="240" width="40" height="20" as="geometry"/>
                </mxCell>
                <mxCell id="3eQlrG0zNZD1PU7YpAZI-2" value="37" style="ellipse;whiteSpace=wrap;html=1;aspect=fixed;strokeWidth=2;fillColor=#1ba1e2;fontColor=#ffffff;strokeColor=#FF8000;" parent="-OWpXkWN_KL6rJydBLoS-1" vertex="1">
                    <mxGeometry x="220" y="260" width="40" height="40" as="geometry"/>
                </mxCell>
                <mxCell id="3eQlrG0zNZD1PU7YpAZI-3" value="41" style="ellipse;whiteSpace=wrap;html=1;aspect=fixed;strokeColor=#006EAF;strokeWidth=2;fillColor=#1ba1e2;fontColor=#ffffff;" parent="-OWpXkWN_KL6rJydBLoS-1" vertex="1">
                    <mxGeometry x="280" y="320" width="40" height="40" as="geometry"/>
                </mxCell>
                <mxCell id="3eQlrG0zNZD1PU7YpAZI-4" value="&lt;font color=&quot;#000000&quot;&gt;0&lt;/font&gt;" style="text;html=1;strokeColor=none;fillColor=none;align=center;verticalAlign=middle;whiteSpace=wrap;rounded=0;" parent="-OWpXkWN_KL6rJydBLoS-1" vertex="1">
                    <mxGeometry x="280" y="360" width="40" height="20" as="geometry"/>
                </mxCell>
                <mxCell id="3eQlrG0zNZD1PU7YpAZI-5" value="&lt;font color=&quot;#000000&quot;&gt;1&lt;/font&gt;" style="text;html=1;strokeColor=none;fillColor=none;align=center;verticalAlign=middle;whiteSpace=wrap;rounded=0;" parent="-OWpXkWN_KL6rJydBLoS-1" vertex="1">
                    <mxGeometry x="220" y="300" width="40" height="20" as="geometry"/>
                </mxCell>
                <mxCell id="3eQlrG0zNZD1PU7YpAZI-6" value="&lt;font color=&quot;#000000&quot;&gt;BF: 0&lt;/font&gt;" style="text;html=1;strokeColor=none;fillColor=none;align=center;verticalAlign=middle;whiteSpace=wrap;rounded=0;" parent="-OWpXkWN_KL6rJydBLoS-1" vertex="1">
                    <mxGeometry x="240" y="330" width="40" height="20" as="geometry"/>
                </mxCell>
                <mxCell id="3eQlrG0zNZD1PU7YpAZI-7" value="&lt;font color=&quot;#000000&quot;&gt;BF: -1&lt;/font&gt;&lt;span style=&quot;color: rgba(0 , 0 , 0 , 0) ; font-family: monospace ; font-size: 0px&quot;&gt;%3CmxGraphModel%3E%3Croot%3E%3CmxCell%20id%3D%220%22%2F%3E%3CmxCell%20id%3D%221%22%20parent%3D%220%22%2F%3E%3CmxCell%20id%3D%222%22%20value%3D%22%26lt%3Bfont%20color%3D%26quot%3B%23000000%26quot%3B%26gt%3B1%26lt%3B%2Ffont%26gt%3B%22%20style%3D%22text%3Bhtml%3D1%3BstrokeColor%3Dnone%3BfillColor%3Dnone%3Balign%3Dcenter%3BverticalAlign%3Dmiddle%3BwhiteSpace%3Dwrap%3Brounded%3D0%3B%22%20vertex%3D%221%22%20parent%3D%221%22%3E%3CmxGeometry%20x%3D%22330%22%20y%3D%22490%22%20width%3D%2240%22%20height%3D%2220%22%20as%3D%22geometry%22%2F%3E%3C%2FmxCell%3E%3C%2Froot%3E%3C%2FmxGraphModel%3E&lt;/span&gt;" style="text;html=1;strokeColor=none;fillColor=none;align=center;verticalAlign=middle;whiteSpace=wrap;rounded=0;" parent="-OWpXkWN_KL6rJydBLoS-1" vertex="1">
                    <mxGeometry x="180" y="270" width="40" height="20" as="geometry"/>
                </mxCell>
                <mxCell id="3eQlrG0zNZD1PU7YpAZI-8" value="&lt;font color=&quot;#ff0000&quot;&gt;BF: -2&lt;/font&gt;" style="text;html=1;strokeColor=none;fillColor=none;align=center;verticalAlign=middle;whiteSpace=wrap;rounded=0;" parent="-OWpXkWN_KL6rJydBLoS-1" vertex="1">
                    <mxGeometry x="200" y="210" width="40" height="20" as="geometry"/>
                </mxCell>
                <mxCell id="3eQlrG0zNZD1PU7YpAZI-9" value="" style="endArrow=none;html=1;strokeColor=#000000;" parent="-OWpXkWN_KL6rJydBLoS-1" source="3eQlrG0zNZD1PU7YpAZI-2" target="3eQlrG0zNZD1PU7YpAZI-0" edge="1">
                    <mxGeometry width="50" height="50" relative="1" as="geometry">
                        <mxPoint x="-150" y="610" as="sourcePoint"/>
                        <mxPoint x="-100" y="560" as="targetPoint"/>
                    </mxGeometry>
                </mxCell>
                <mxCell id="3eQlrG0zNZD1PU7YpAZI-10" value="" style="endArrow=none;html=1;strokeColor=#000000;" parent="-OWpXkWN_KL6rJydBLoS-1" source="3eQlrG0zNZD1PU7YpAZI-3" target="3eQlrG0zNZD1PU7YpAZI-2" edge="1">
                    <mxGeometry width="50" height="50" relative="1" as="geometry">
                        <mxPoint x="-100" y="660" as="sourcePoint"/>
                        <mxPoint x="-50" y="610" as="targetPoint"/>
                    </mxGeometry>
                </mxCell>
                <mxCell id="3eQlrG0zNZD1PU7YpAZI-11" value="&lt;font color=&quot;#000000&quot;&gt;Right-Right Case&lt;/font&gt;" style="text;html=1;strokeColor=none;fillColor=none;align=center;verticalAlign=middle;whiteSpace=wrap;rounded=0;" parent="-OWpXkWN_KL6rJydBLoS-1" vertex="1">
                    <mxGeometry x="60" y="270" width="100" height="20" as="geometry"/>
                </mxCell>
                <mxCell id="u7G5KcBuLaWTXX5hGm_y-0" value="&lt;font color=&quot;#000000&quot;&gt;Left Rotation&lt;/font&gt;" style="html=1;shadow=0;dashed=0;align=center;verticalAlign=middle;shape=mxgraph.arrows2.arrow;dy=0.6;dx=40;notch=0;strokeColor=none;fillColor=#FFD966;" parent="-OWpXkWN_KL6rJydBLoS-1" vertex="1">
                    <mxGeometry x="320" y="245" width="100" height="70" as="geometry"/>
                </mxCell>
                <mxCell id="JAG3MNyhMRdAgt53Le-B-0" value="&lt;font color=&quot;#97d077&quot;&gt;1&lt;/font&gt;" style="text;html=1;strokeColor=none;fillColor=none;align=center;verticalAlign=middle;whiteSpace=wrap;rounded=0;" parent="-OWpXkWN_KL6rJydBLoS-1" vertex="1">
                    <mxGeometry x="520" y="258.5" width="40" height="20" as="geometry"/>
                </mxCell>
                <mxCell id="JAG3MNyhMRdAgt53Le-B-1" value="37" style="ellipse;whiteSpace=wrap;html=1;aspect=fixed;strokeWidth=2;fillColor=#1ba1e2;fontColor=#ffffff;strokeColor=#006EAF;" parent="-OWpXkWN_KL6rJydBLoS-1" vertex="1">
                    <mxGeometry x="520" y="218.5" width="40" height="40" as="geometry"/>
                </mxCell>
                <mxCell id="JAG3MNyhMRdAgt53Le-B-2" value="23" style="ellipse;whiteSpace=wrap;html=1;aspect=fixed;strokeColor=#006EAF;strokeWidth=2;fillColor=#1ba1e2;fontColor=#ffffff;" parent="-OWpXkWN_KL6rJydBLoS-1" vertex="1">
                    <mxGeometry x="460" y="281.5" width="40" height="40" as="geometry"/>
                </mxCell>
                <mxCell id="JAG3MNyhMRdAgt53Le-B-3" value="&lt;font color=&quot;#000000&quot;&gt;0&lt;/font&gt;" style="text;html=1;strokeColor=none;fillColor=none;align=center;verticalAlign=middle;whiteSpace=wrap;rounded=0;" parent="-OWpXkWN_KL6rJydBLoS-1" vertex="1">
                    <mxGeometry x="580" y="321.5" width="40" height="20" as="geometry"/>
                </mxCell>
                <mxCell id="JAG3MNyhMRdAgt53Le-B-4" value="&lt;font color=&quot;#97d077&quot;&gt;0&lt;/font&gt;" style="text;html=1;strokeColor=none;fillColor=none;align=center;verticalAlign=middle;whiteSpace=wrap;rounded=0;" parent="-OWpXkWN_KL6rJydBLoS-1" vertex="1">
                    <mxGeometry x="460" y="321.5" width="40" height="20" as="geometry"/>
                </mxCell>
                <mxCell id="JAG3MNyhMRdAgt53Le-B-5" value="&lt;font color=&quot;#000000&quot;&gt;BF: 0&lt;/font&gt;&lt;span style=&quot;color: rgba(0 , 0 , 0 , 0) ; font-family: monospace ; font-size: 0px&quot;&gt;%3CmxGraphModel%3E%3Croot%3E%3CmxCell%20id%3D%220%22%2F%3E%3CmxCell%20id%3D%221%22%20parent%3D%220%22%2F%3E%3CmxCell%20id%3D%222%22%20value%3D%22%26lt%3Bfont%20color%3D%26quot%3B%23000000%26quot%3B%26gt%3B1%26lt%3B%2Ffont%26gt%3B%22%20style%3D%22text%3Bhtml%3D1%3BstrokeColor%3Dnone%3BfillColor%3Dnone%3Balign%3Dcenter%3BverticalAlign%3Dmiddle%3BwhiteSpace%3Dwrap%3Brounded%3D0%3B%22%20vertex%3D%221%22%20parent%3D%221%22%3E%3CmxGeometry%20x%3D%22330%22%20y%3D%22490%22%20width%3D%2240%22%20height%3D%2220%22%20as%3D%22geometry%22%2F%3E%3C%2FmxCell%3E%3C%2Froot%3E%3C%2FmxGraphModel%3&lt;/span&gt;" style="text;html=1;strokeColor=none;fillColor=none;align=center;verticalAlign=middle;whiteSpace=wrap;rounded=0;" parent="-OWpXkWN_KL6rJydBLoS-1" vertex="1">
                    <mxGeometry x="620" y="291.5" width="40" height="20" as="geometry"/>
                </mxCell>
                <mxCell id="JAG3MNyhMRdAgt53Le-B-6" value="&lt;font color=&quot;#97d077&quot;&gt;BF: 0&lt;/font&gt;" style="text;html=1;strokeColor=none;fillColor=none;align=center;verticalAlign=middle;whiteSpace=wrap;rounded=0;" parent="-OWpXkWN_KL6rJydBLoS-1" vertex="1">
                    <mxGeometry x="420" y="291.5" width="40" height="20" as="geometry"/>
                </mxCell>
                <mxCell id="JAG3MNyhMRdAgt53Le-B-7" value="" style="endArrow=none;html=1;strokeColor=#000000;" parent="-OWpXkWN_KL6rJydBLoS-1" source="JAG3MNyhMRdAgt53Le-B-2" target="JAG3MNyhMRdAgt53Le-B-1" edge="1">
                    <mxGeometry width="50" height="50" relative="1" as="geometry">
                        <mxPoint x="760" y="881.5" as="sourcePoint"/>
                        <mxPoint x="810" y="831.5" as="targetPoint"/>
                    </mxGeometry>
                </mxCell>
                <mxCell id="JAG3MNyhMRdAgt53Le-B-8" value="" style="endArrow=none;html=1;strokeColor=#000000;" parent="-OWpXkWN_KL6rJydBLoS-1" source="JAG3MNyhMRdAgt53Le-B-1" target="JAG3MNyhMRdAgt53Le-B-9" edge="1">
                    <mxGeometry width="50" height="50" relative="1" as="geometry">
                        <mxPoint x="770" y="891.5" as="sourcePoint"/>
                        <mxPoint x="631.8165322774366" y="443.2508669786839" as="targetPoint"/>
                    </mxGeometry>
                </mxCell>
                <mxCell id="JAG3MNyhMRdAgt53Le-B-9" value="41" style="ellipse;whiteSpace=wrap;html=1;aspect=fixed;strokeWidth=2;fillColor=#1ba1e2;fontColor=#ffffff;strokeColor=#006EAF;" parent="-OWpXkWN_KL6rJydBLoS-1" vertex="1">
                    <mxGeometry x="580" y="281.5" width="40" height="40" as="geometry"/>
                </mxCell>
                <mxCell id="JAG3MNyhMRdAgt53Le-B-10" value="&lt;font color=&quot;#97d077&quot;&gt;BF: 0&lt;/font&gt;" style="text;html=1;strokeColor=none;fillColor=none;align=center;verticalAlign=middle;whiteSpace=wrap;rounded=0;" parent="-OWpXkWN_KL6rJydBLoS-1" vertex="1">
                    <mxGeometry x="560" y="228.5" width="40" height="20" as="geometry"/>
                </mxCell>
            </root>
        </mxGraphModel>
    </diagram>
</mxfile>
